<?xml version="1.0" encoding="UTF-8"?>
<svg id="Layer_1" data-name="Layer 1" xmlns="http://www.w3.org/2000/svg" viewBox="0 0 363.94 360.84">
  <defs>
    <style>
      .cls-1 {
        fill: #2d2e73;
      }

      .cls-2 {
        fill: #fff;
      }

      .cls-3 {
        fill: none;
      }

      .cls-4 {
        fill: #2d2e73;
      }

      .cls-5 {
        opacity: .2;
      }
    </style>
  </defs>
  <g class="cls-5">
    <polygon class="cls-1" points="363.94 184.29 363.94 194.33 362.02 213.94 360.58 223.04 355.32 242.17 351.98 251.74 347.67 260.84 342.89 269.93 337.63 278.53 331.87 287.15 323.75 298.64 299.36 323.51 292.65 329.26 278.3 339.78 261.55 348.87 252.46 352.69 242.89 355.58 233.32 357.97 213.71 359.86 194.1 360.84 174.49 360.84 165.4 359.86 155.83 357.97 138.14 353.19 129.04 350.29 120.89 346.96 112.3 343.12 98.89 335.94 92.19 331.66 83.12 325.43 75.94 319.2 68.77 312.52 55.83 299.11 50.1 292.41 44.84 285.23 40.06 277.58 31.44 261.31 23.79 243.15 18.53 224.01 16.14 206.77 14.22 192.91 14.22 178.06 15.64 161.82 17.08 153.67 21.87 136.92 24.73 127.82 28.1 119.23 36.22 103.43 41.01 95.78 46.26 88.13 52.02 81.43 57.75 74.25 72.1 60.87 81.2 54.17 98.89 42.68 116.11 34.06 124.26 30.72 132.85 27.86 150.07 23.07 166.81 19.71 175.44 18.76 207.01 18.76 216.58 19.71 225.67 21.63 243.86 26.41 251.99 29.27 260.11 32.64 276.85 40.76 285 45.55 295.99 53.2 304.61 61.82 319.91 75.7 332.37 92.92 337.16 100.09 341.44 107.74 345.75 115.86 353.9 133.11 357.24 142.68 362.5 163.23 363.94 184.29"/>
  </g>
  <polygon class="cls-2" points="349.72 165.53 349.72 175.57 347.81 195.18 346.36 204.28 341.1 223.41 337.76 232.98 333.45 242.08 328.67 251.17 323.41 259.77 317.65 268.39 309.53 279.88 285.14 304.75 278.43 310.5 264.08 321.02 247.34 330.11 238.24 333.93 228.67 336.82 219.1 339.21 199.49 341.1 179.88 342.08 160.27 342.08 151.18 341.1 141.61 339.21 123.92 334.43 114.82 331.53 106.67 328.2 98.08 324.36 84.67 317.18 77.97 312.9 68.9 306.67 61.72 300.44 54.55 293.76 41.61 280.35 35.88 273.65 30.62 266.47 25.84 258.82 17.22 242.55 9.57 224.39 4.31 205.25 1.92 188.01 0 174.15 0 159.3 1.42 143.06 2.87 134.91 7.65 118.16 10.51 109.06 13.88 100.47 22 84.67 26.79 77.02 32.04 69.37 37.8 62.67 43.53 55.49 57.88 42.11 66.98 35.41 84.67 23.92 101.89 15.3 110.04 11.96 118.63 9.1 135.85 4.31 152.6 .95 161.22 0 192.79 0 202.36 .95 211.45 2.87 229.65 7.65 237.77 10.51 245.89 13.88 262.63 22 270.78 26.79 281.77 34.44 290.39 43.06 305.69 56.94 318.15 74.16 322.94 81.33 327.22 88.98 331.53 97.1 339.68 114.35 343.02 123.92 348.28 144.47 349.72 165.53"/>
  <g>
    <path class="cls-1" d="M100.36,166.31l-2.16-5.38-.79-1.67.61,1.38,1.06,2.88,1.06,2.73,1.06,2.87,1.97,5.15,1.06,2.57,1.97,5.45,1.36,2.88,1.21,3.03,1.12,2.62.45-1.14-9.98-23.37ZM92.28,146.13l-1.16-2.82h-.25l.49,1.14,2.12,5.14.72,1.85-1.92-5.31ZM77.21,107.64h-.06l.43.95-.37-.95Z"/>
    <path class="cls-1" d="M77.6,108.65l.09.23h.01s-.1-.23-.1-.23Z"/>
    <path class="cls-1" d="M257.02,251.14l-4.59-.05-8.24.27-3.88-.21-3.76.06-3.95-.02-2.77.04.03.03,4.65.32,16.33.16,7.84.32,2.72-.8.73-.93-5.11.81Z"/>
    <path class="cls-1" d="M262.13,250.33h.05s.02-.1.02-.1l-.07.1Z"/>
    <path class="cls-1" d="M129.04,143l-.29.67h.55l-.26-.67Z"/>
    <path class="cls-1" d="M129.04,143l-.29.67h.55l-.26-.67Z"/>
    <path class="cls-1" d="M96.81,157.92l-1.06-2.73-1.21-2.87-.32-.82,1.56,4.31,1.55,3.29-.52-1.18Z"/>
    <path class="cls-4" d="M175.39,284.74l-1.01-3.96-.64-1.84-1.57-3.32-.83-1.57-.83-1.48-.92-1.38-2.4-3.32-2.95-2.67-1.66-1.66-2.12-1.48-1.57-.92-3.22-1.57-1.57-.64-1.57-.55-3.5-.92-1.75-.37-1.84-.18h-6.08l-1.66.18-3.23.64-3.32.92-1.66.55-1.57.64-3.32,1.66-3.41,2.21-1.75,1.29-2.76,2.58-1.1,1.38-1.11,1.29-1.01,1.48-.92,1.48-1.57,3.04-.64,1.66-.55,1.75-.92,3.22-.27,1.57-.27,3.13v2.85l.37,2.67.46,3.32,1.01,3.69,1.48,3.5,1.66,3.13.92,1.48,1.01,1.38,1.11,1.29,2.49,2.58,1.38,1.29,1.38,1.2,1.75,1.2,1.29.83,2.58,1.38,1.66.74,1.57.64,1.75.55,3.41.92,1.84.37h-.01s1.75.17,1.75.17h3.78l3.78-.18,3.78-.37,1.85-.46,1.84-.55,1.75-.74,3.22-1.75,2.76-2.03,1.29-1.11,4.7-4.79,1.57-2.21,1.11-1.66,1.01-1.66.92-1.75.83-1.75.64-1.84,1.01-3.69.27-1.75.37-3.78v-1.94l-.27-4.05ZM162.56,281.97l-.83,1.94-2.29,3.32-1.47,1.29-1.65,1.01-3.3,1.38-1.56.27h0s-3.4-.01-3.4-.01l-1.84-.37-1.74-.74-1.65-.92-2.66-2.21-.83-1.29-1.47-3.41-.46-2.03-.09-3.96.37-1.75.64-1.66.92-1.48,2.48-2.95,1.65-1.2,2.38-1.01,2.29-.83,1.93-.09,2.2.18,2.2.37,1.56.55,1.56.83,2.47,1.94,1.74,2.95.73,1.85.46,2.03.18,1.94-.55,4.06Z"/>
    <path class="cls-4" d="M263.32,285.04l-1.01-3.96-.64-1.84-1.57-3.32-.83-1.57-.83-1.48-.92-1.38-2.4-3.32-2.95-2.67-1.66-1.66-2.12-1.48-1.57-.92-3.22-1.57-1.57-.64-1.57-.55-3.5-.92-1.75-.37-1.84-.18h-6.08l-1.66.18-3.23.64-3.32.92-1.66.55-1.57.64-3.32,1.66-3.41,2.21-1.75,1.29-2.76,2.58-1.1,1.38-1.11,1.29-1.01,1.48-.92,1.48-1.57,3.04-.64,1.66-.55,1.75-.92,3.22-.27,1.57-.27,3.13v2.85l.37,2.67.46,3.32,1.01,3.69,1.48,3.5,1.66,3.13.92,1.48,1.01,1.38,1.11,1.29,2.49,2.58,1.38,1.29,1.38,1.2,1.75,1.2,1.29.83,2.58,1.38,1.66.74,1.57.64,1.75.55,3.41.92,1.84.37h-.01s1.75.17,1.75.17h3.78l3.78-.18,3.78-.37,1.85-.46,1.84-.55,1.75-.74,3.22-1.75,2.76-2.03,1.29-1.11,4.7-4.79,1.57-2.21,1.11-1.66,1.01-1.66.92-1.75.83-1.75.64-1.84,1.01-3.69.27-1.75.37-3.78v-1.94l-.27-4.05ZM250.49,282.27l-.83,1.94-2.29,3.32-1.47,1.29-1.65,1.01-3.3,1.38-1.56.27h0s-3.4-.01-3.4-.01l-1.84-.37-1.74-.74-1.65-.92-2.66-2.21-.83-1.29-1.47-3.41-.46-2.03-.09-3.96.37-1.75.64-1.66.92-1.48,2.48-2.95,1.65-1.2,2.38-1.01,2.29-.83,1.93-.09,2.2.18,2.2.37,1.56.55,1.56.83,2.47,1.94,1.74,2.95.73,1.85.46,2.03.18,1.94-.55,4.06Z"/>
    <path class="cls-1" d="M283.26,199.46l-6.78.34h-5.85s-5.51-.5-5.51-.5l-3.05-.63-6.21-1.68-3.48-1.12-2.9-1.2-1.6-.72.08.22,2.12,5.15,1.06,2.72.17.38-1.27,2.25-2.57,4.96-2.88,5.12-1.28,2.57-2.4,5.12-5.12,9.6-1.91,3.71h-3.67s.17-.37.17-.37l-9.98-25.6-2.53-5.93,1.66-3.75,1.06-2.72,2.12-5.15,1.97-5.45,1.06-2.72,1.21-2.57.91-2.05-2.24-2.34-2.17-2.56-2.01-2.74-1.76-2.85-1.05,2.85-1.97,5.14-1.06,2.58-1.97,5.45-1.36,2.87-.6,1.51-1.46-3.41-1.21-3.03-1.36-2.88-1.97-5.45-1.06-2.57-1.97-5.15-1.06-2.87-1.06-2.73-1.06-2.88-1.21-2.72-1.06-2.72-1.21-2.88-1.06-2.73-1.43-3.47h3.08s6.31.03,6.31.03l8.2-.16-.8-5.95.02-5.48.18-2-26.41.3-7.03-.02-6.72.22-12.59-.25-5.98.03-11.92-.12-6.65-.11-6.32-.05-6.65-.11-6.35.13-6.32-.05-6.68.06-6.32-.05-8.41.04-1.11-3.03-1.89-4.85-1.88-5.11-2.16-4.84-1.4-3.61-.09-.23-.02-.06-.43-.95-4.37-9.74-5.05-2.29-4.44-.15-3.04-.12-1.45-.1-1.48.02-1.55.05h-1.84l-2.06-.1-1.63-.11-4.98.02-1.73.04-2.23.09-2.29-.19-3.54-.08-2.96.03-3-.24-3.46.09-2.63.18-.83,1.32.16,1.04,2.07,3.65,1.42,2.35,2.14,4.33,1.4,2.66,1.41,2.86,1.54,1.88,2.51.29,1.56.14,1.59.03,1.48-.02,2.91-.12,1.48-.02,1.41.02,1.95.05,2.1-.02,4.76.09,3.43.03,1.24.03.03.08,1.61,5.39,2.16,5.38,2.15,5.65,2.15,5.11,2.69,7.54,2.16,4.84,2.15,4.58,1.88,4.84,3.5,9.69,3.77,9.15,1.88,4.84,4.31,9.69,4.31,10.77,1.88,5.38,2.15,5.38,2.16,5.12,4.3,9.95,1.88,4.58,1.89,4.84,1.15,2.79.03.07,2.61,7.56,2.51,2.92h15.22s6.42-.12,6.42-.12l4.26.35,4.41-.02,4.59.05,4.22-.09,6.08.19,4.03-.17,3.83-.24h3.95s7.83.24,7.83.24l7.52-.12,3.95.02,8.05-.34,8.82-.05,4.33.17,4.41-.02,4.21-.1,8.25-.27.99-.02,2.77-.04,3.95.02,3.76-.06,3.88.21,8.24-.27,4.59.05,5.11-.81.07-.1,2.08-2.66,4.33-8.16,1.44-2.88,1.28-2.72,4.16-8.33,1.44-2.72,1.28-2.88,1.44-2.72,9.33-18.25-5.72.55ZM143.55,143.69l9.79.22,6.35-.13,6.01-.18,6.32.04,7.28.14-1.43,3.34-2.12,5.15-1.06,2.72-1.21,2.88-1.06,2.72-1.21,2.73-1.06,2.87-1.06,2.73-1.06,2.88-1.97,5.14-1.06,2.58-1.96,5.45-1.37,2.87-1.21,3.03-.2.46-1.85-4.34-1.22-3.03-1.36-2.88-1.97-5.45-1.06-2.57-1.96-5.15-1.06-2.87-1.06-2.73-1.06-2.88-1.21-2.72-1.06-2.72-1.21-2.88-1.06-2.73-1.93-4.67,2.36-.02ZM114.41,179.52l-1.97,5.45-1.36,2.87-.74,1.84-.45,1.14-1.12-2.62-1.21-3.03-1.36-2.88-1.97-5.45-1.06-2.57-1.97-5.15-1.06-2.87-1.06-2.73-1.06-2.88-.61-1.38-.08-.16-1.55-3.29-1.56-4.31-.02-.06-.72-1.85-2.12-5.14-.49-1.14h.25l14.2.06,10.2-.05,6.96.34h6.27s.29-.66.29-.66l.26.67h-.55l-1.48,3.45-2.11,5.15-1.06,2.72-1.22,2.88-1.05,2.72-1.22,2.73-1.06,2.87-1.06,2.73-1.05,2.88-1.97,5.14-1.06,2.58ZM150.27,214.72l-8.54,21.9-2.42.1-3.95-.02-4.22.1h-.93l-11.74-28.1-1.94-4.53,1.81-4.07,1.06-2.72,2.12-5.15,1.97-5.45,1.06-2.72,1.21-2.57,1.21-2.73,1.52-4.24,1.21-2.88,1.21-3.17,1.21-3.03.91-3.03,1.81-4.39.09-.24.31.75.91,3.03,1.21,3.02,1.22,3.18,1.21,2.88,1.51,4.24,1.21,2.72,1.21,2.57,1.06,2.73,1.97,5.45,2.12,5.15,1.06,2.72,2.42,5.45,1.69,4.23-3.77,8.82ZM163.02,236.83l-7.45-.08-1.46-.03.9-2.71,1.06-2.57,1.06-2.73,1.06-2.57,2.08-4.82.41.94,1.05,2.57,1.07,2.73,1.06,2.57.9,2.72,1.7,3.93-3.44.05ZM192.4,236.43l-9.09.26-4.41.02-.48.03.15-.31-9.98-25.6-2.16-5.06.09-.22,2.42-5.45,1.06-2.72,2.12-5.15,1.97-5.45,1.06-2.72,1.21-2.57,1.21-2.73,1.51-4.24,1.21-2.88,1.21-3.17,1.21-3.03.91-3.03,1.82-4.39.89-2.27.72,1.73.91,3.02,1.21,3.03,1.21,3.18,1.21,2.88,1.51,4.24,1.22,2.72,1.21,2.57,1.05,2.73,1.97,5.45,2.12,5.15,1.06,2.72,2.42,5.45,1.33,3.31-4.61,10.79-8.47,21.71ZM204.92,236.08l.69-2.07,1.06-2.57,1.06-2.73,1.06-2.57,2.42-5.6.48-1.15.79,1.82,1.06,2.57,1.06,2.73,1.06,2.57.91,2.72,1.69,3.9-13.34.38Z"/>
    <g>
      <path class="cls-1" d="M328.58,128.52l-1.62-6.34-.97-2.79-2.61-5.52-1.37-2.61-1.33-2.38-1.47-2.18-3.88-5.37-4.98-4.53-2.59-2.59-3.24-2.24-2.43-1.44-5.35-2.61-2.49-1.02-2.47-.87-5.86-1.55-2.69-.57-2.73-.26h-10.21l-2.42.26-5.3,1.06-5.54,1.55-2.64.87-2.44,1.01-5.43,2.7-5.65,3.66-2.73,2.02-4.39,4.12-1.84,2.28-1.78,2.06-1.56,2.3-1.47,2.34-2.54,4.93-.99,2.54-.91,2.87-1.53,5.36-.4,2.28-.21,2.33-.24,2.77v4.47l.87,6.23.51,3.67,1.6,5.86,1.4,3.31,1,2.37,2.73,5.17,1.43,2.3,1.57,2.12.49.58,1.25,1.45,4.18,4.36,2.28,2.11,2.16,1.88.12.08,2.66,1.81,2.06,1.32,4.21,2.26,2.68,1.2,2.52,1.03,1.02.33,1.76.56,5.75,1.54,2.61.53,4.05.3h5.04l6.41-.32,6.19-.6,2.78-.69,2.86-.85.49-.21,2.12-.9,5.18-2.82,4.46-3.25,1.96-1.68,7.85-8.01,2.49-3.53,1.87-2.76,1.63-2.7,1.51-2.86,1.3-2.76,1-2.84,1.66-6.04.41-2.67.63-6.29v-2.98l-.45-6.52ZM320.54,140.95l-4.39,1.83-.16.07h-6.62l-12.88.19-12.68.56-3.36.8-.61.15-.03.97-.16,4.9v27.64l-4.36,2.84-5.87-.95-1.32-1.7-.19-4.55v-26.5l-.54-3.59-.03-.2-1.32-.56h-16.47l-10.22.38-4.55.37-3.97-.75-2.08-3.98.19-5.11,4.54-1.7h26.5l3.22-.19,4.35-1.52.02-.19.36-4.54.19-7.38.38-8.71.38-8.14v-4.92l.56-2.08,3.6-2.28,5.87,1.33,1.33,5.68-.38,6.81v3.98l-.19,3.79.19,3.97v13.06l2.65,1.71,4.54.18h4.17l3.21-.18,4.55-.19,3.03-.19h13.81l4.36.94,1.13,3.6-.75,4.35Z"/>
      <polygon class="cls-3" points="321.29 136.6 320.54 140.95 316.15 142.78 315.99 142.85 309.37 142.85 296.49 143.04 283.81 143.6 280.45 144.4 279.84 144.55 279.81 145.52 279.65 150.42 279.65 178.06 275.29 180.9 269.42 179.95 268.1 178.25 267.91 173.7 267.91 147.2 267.37 143.61 267.34 143.41 266.02 142.85 249.55 142.85 239.33 143.23 234.78 143.6 230.81 142.85 228.73 138.87 228.92 133.76 233.46 132.06 259.96 132.06 263.18 131.87 267.53 130.35 267.55 130.16 267.91 125.62 268.1 118.24 268.48 109.53 268.86 101.39 268.86 96.47 269.42 94.39 273.02 92.11 278.89 93.44 280.22 99.12 279.84 105.93 279.84 109.91 279.65 113.7 279.84 117.67 279.84 130.73 282.49 132.44 287.03 132.62 291.2 132.62 294.41 132.44 298.96 132.25 301.99 132.06 315.8 132.06 320.16 133 321.29 136.6"/>
    </g>
  </g>
</svg>