<?xml version="1.0" encoding="UTF-8"?>
<svg id="Layer_1" data-name="Layer 1" xmlns="http://www.w3.org/2000/svg" viewBox="0 0 316.44 249.4">
  <defs>
    <style>
      .cls-1 {
        fill: #2d2e73;
      }

      .cls-2 {
        fill: #2d2e73;
      }
    </style>
  </defs>
  <g>
    <path class="cls-1" d="M54.56,33.99l.43.95-.37-.95h-.06ZM68.28,69.66l.49,1.14,2.12,5.14.72,1.85-1.92-5.31-1.16-2.82h-.25ZM74.82,85.61l.61,1.38,1.06,2.88,1.06,2.73,1.06,2.87,1.97,5.15,1.06,2.57,1.97,5.45,1.36,2.88,1.21,3.03,1.12,2.62.45-1.14-9.98-23.37-2.16-5.38-.79-1.67Z"/>
    <path class="cls-1" d="M55.01,35l.09.23h0s-.1-.23-.1-.23Z"/>
    <path class="cls-1" d="M207.24,177.58l.03.03,4.65.32,16.33.16,7.84.32,2.72-.8.73-.93-5.11.81-4.59-.05-8.24.27-3.88-.21-3.76.06-3.95-.02-2.77.04Z"/>
    <path class="cls-1" d="M239.54,176.68h.05s.02-.1.02-.1l-.07.1Z"/>
    <path class="cls-1" d="M106.16,70.02h.55s-.26-.67-.26-.67l-.29.67Z"/>
    <path class="cls-1" d="M106.16,70.02h.55s-.26-.67-.26-.67l-.29.67Z"/>
    <path class="cls-1" d="M71.63,77.85l1.56,4.31,1.55,3.29-.52-1.18-1.06-2.73-1.21-2.87-.32-.82Z"/>
    <path class="cls-1" d="M0,22.71l.16,1.04,2.07,3.65,1.42,2.35,2.14,4.33,1.4,2.66,1.41,2.86,1.54,1.88,2.51.29,1.56.14,1.59.03,1.48-.02,2.91-.12,1.48-.02,1.41.02,1.95.05,2.1-.02,4.76.09,3.43.03,1.24.03.03.08,1.61,5.39,2.16,5.38,2.15,5.65,2.15,5.11,2.69,7.54,2.16,4.84,2.15,4.58,1.88,4.84,3.5,9.69,3.77,9.15,1.88,4.84,4.31,9.69,4.31,10.77,1.88,5.38,2.15,5.38,2.16,5.12,4.3,9.95,1.88,4.58,1.89,4.84,1.15,2.79.03.07,2.61,7.56,2.51,2.92h15.22s6.42-.12,6.42-.12l4.26.35,4.41-.02,4.59.05,4.22-.09,6.08.19,4.03-.17,3.83-.24h3.95s7.83.24,7.83.24l7.52-.12,3.95.02,8.05-.34,8.82-.05,4.33.17,4.41-.02,4.21-.1,8.25-.27.99-.02,2.77-.04,3.95.02,3.76-.06,3.88.21,8.24-.27,4.59.05,5.11-.81.07-.1,2.08-2.66,4.33-8.16,1.44-2.88,1.28-2.72,4.16-8.33,1.44-2.72,1.28-2.88,1.44-2.72,10.73-20.98,12.81-25.29,2.88-5.6,2.72-5.61,3.04-5.6,1.44-2.72,1.44-2.88,1.46-5.43-.16-2.77-3.57-3.27-7.97-4.14-5.61-2.51-59.33-.38-55.46.62-7.03-.02-6.72.22-12.59-.25-5.98.03-11.92-.12-6.65-.11-6.32-.05-6.65-.11-6.35.13-6.32-.05-6.68.06-6.32-.05-8.41.04-1.11-3.03-1.89-4.85-1.88-5.11-2.16-4.84-1.4-3.61-.09-.23-.02-.06-.43-.95-4.37-9.74-5.05-2.29-4.44-.15-3.04-.12-1.45-.1-1.48.02-1.55.05h-1.84s-2.06-.1-2.06-.1l-1.63-.11-4.98.02-1.73.04-2.23.09-2.29-.19-3.54-.08-2.96.03-3-.24-3.46.09-2.63.18-.83,1.32ZM156.71,70.13l-1.43,3.34-2.12,5.15-1.06,2.72-1.21,2.88-1.06,2.72-1.21,2.73-1.06,2.87-1.06,2.73-1.06,2.88-1.97,5.14-1.06,2.58-1.96,5.45-1.37,2.87-1.21,3.03-.2.46-1.85-4.34-1.22-3.03-1.36-2.88-1.97-5.45-1.06-2.57-1.96-5.15-1.06-2.87-1.06-2.73-1.06-2.88-1.21-2.72-1.06-2.72-1.21-2.88-1.06-2.73-1.93-4.67,2.36-.02,9.79.22,6.35-.13,6.01-.18,6.32.04,7.28.14ZM207.35,70.03l-.29.68-.36.85-.82,1.91-2.12,5.15-1.06,2.72-1.21,2.88-1.06,2.72-1.21,2.73-1.07,2.87-1.05,2.73-1.06,2.88-1.97,5.14-1.06,2.58-1.97,5.45-1.36,2.87-.6,1.51-1.46-3.41-1.21-3.03-1.36-2.88-1.97-5.45-1.06-2.57-1.97-5.15-1.06-2.87-1.06-2.73-1.06-2.88-1.21-2.72-1.06-2.72-1.21-2.88-1.06-2.73-1.43-3.47h3.08s6.31.03,6.31.03l12.69-.24,14.05.02h.32ZM229.46,100.09l-1.06-2.88-1.06-2.73-1.06-2.87-1.21-2.73-1.06-2.72-1.22-2.88-1.06-2.72-2.11-5.15-1.43-3.34-.67-1.86h3.53s6.68-.06,6.68-.06l13.04-.17,5.97-.03,6.32.05,5.25-.04-2.05,3.59-2.88,6.4-11.21,21.77-1.76,3.85-5,9.72-.96-2.03-1.97-5.45-1.06-2.58-1.96-5.14ZM197.81,136.13l-2.53-5.93,1.66-3.75,1.06-2.72,2.12-5.15,1.97-5.45,1.06-2.72,1.21-2.57,1.21-2.73,1.52-4.24,1.21-2.88,1.21-3.17,1.21-3.03.91-3.03.72-1.73,1.51,3.67.91,3.03,1.21,3.03,1.21,3.17,1.21,2.88,1.52,4.24,1.21,2.72,1.21,2.58,1.06,2.72,1.97,5.45,2.12,5.15,1.06,2.72.17.38-1.27,2.25-2.57,4.96-2.88,5.12-1.28,2.57-2.4,5.12-5.12,9.6-1.91,3.71h-3.67s.17-.37.17-.37l-9.98-25.6ZM182.33,162.43l.69-2.07,1.06-2.57,1.06-2.73,1.06-2.57,2.42-5.6.48-1.15.79,1.82,1.06,2.57,1.06,2.73,1.06,2.57.91,2.72,1.69,3.9-13.34.38ZM143.84,132.12l.09-.22,2.42-5.45,1.06-2.72,2.12-5.15,1.97-5.45,1.06-2.72,1.21-2.57,1.21-2.73,1.51-4.24,1.21-2.88,1.21-3.17,1.21-3.03.91-3.03,1.82-4.39.89-2.27.72,1.73.91,3.02,1.21,3.03,1.21,3.18,1.21,2.88,1.51,4.24,1.22,2.72,1.21,2.57,1.05,2.73,1.97,5.45,2.12,5.15,1.06,2.72,2.42,5.45,1.33,3.31-4.61,10.79-8.47,21.71-9.09.26-4.41.02-.48.03.15-.31-9.98-25.6-2.16-5.06ZM131.52,163.07l.9-2.71,1.06-2.57,1.06-2.73,1.06-2.57,2.08-4.82.41.94,1.05,2.57,1.07,2.73,1.06,2.57.9,2.72,1.7,3.93-3.44.05-7.45-.08-1.46-.03ZM93.94,130.52l1.81-4.07,1.06-2.72,2.12-5.15,1.97-5.45,1.06-2.72,1.21-2.57,1.21-2.73,1.52-4.24,1.21-2.88,1.21-3.17,1.21-3.03.91-3.03,1.81-4.39.09-.24.31.75.91,3.03,1.21,3.02,1.22,3.18,1.21,2.88,1.51,4.24,1.21,2.72,1.21,2.57,1.06,2.73,1.97,5.45,2.12,5.15,1.06,2.72,2.42,5.45,1.69,4.23-3.77,8.82-8.54,21.9-2.42.1-3.95-.02-4.22.1h-.93s-11.74-28.1-11.74-28.1l-1.94-4.53ZM68.28,69.66h.25s14.2.06,14.2.06l10.2-.05,6.96.34h6.27s.29-.66.29-.66l.26.67h-.55s-1.48,3.45-1.48,3.45l-2.11,5.15-1.06,2.72-1.22,2.88-1.05,2.72-1.22,2.73-1.06,2.87-1.06,2.73-1.05,2.88-1.97,5.14-1.06,2.58-1.97,5.45-1.36,2.87-.74,1.84-.45,1.14-1.12-2.62-1.21-3.03-1.36-2.88-1.97-5.45-1.06-2.57-1.97-5.15-1.06-2.87-1.06-2.73-1.06-2.88-.61-1.38-.08-.16-1.55-3.29-1.56-4.31-.02-.06-.72-1.85-2.12-5.14-.49-1.14Z"/>
  </g>
  <path class="cls-2" d="M152.82,211.1l-1.01-3.96-.64-1.84-1.56-3.31-.83-1.56-.83-1.47-.92-1.38-2.39-3.31-2.94-2.67-1.65-1.65-2.12-1.47-1.56-.92-3.22-1.56-1.56-.64-1.56-.55-3.5-.92-1.75-.37-1.84-.18h-6.07l-1.65.18-3.22.64-3.31.92-1.65.55-1.56.64-3.31,1.65-3.4,2.21-1.75,1.29-2.76,2.58-1.1,1.38-1.11,1.29-1.01,1.47-.92,1.47-1.56,3.03-.64,1.65-.55,1.75-.92,3.22-.27,1.56-.27,3.13v2.85l.37,2.67.46,3.31,1.01,3.68,1.47,3.5,1.65,3.13.92,1.47,1.01,1.38,1.11,1.29,2.49,2.58,1.38,1.29,1.38,1.2,1.75,1.2,1.29.83,2.58,1.38,1.65.74,1.56.64,1.75.55,3.4.92,1.84.37h-.01s1.75.17,1.75.17h3.77l3.77-.18,3.77-.37,1.84-.46,1.84-.55,1.75-.74,3.22-1.75,2.76-2.02,1.29-1.11,4.69-4.78,1.56-2.21,1.11-1.65,1.01-1.65.92-1.75.83-1.75.64-1.84,1.01-3.68.27-1.75.37-3.77v-1.93l-.27-4.05ZM140,208.34l-.83,1.93-2.29,3.31-1.46,1.29-1.65,1.01-3.3,1.38-1.56.27h0s-3.39-.01-3.39-.01l-1.83-.37-1.74-.74-1.65-.92-2.65-2.21-.83-1.29-1.46-3.4-.46-2.02-.09-3.96.37-1.75.64-1.65.92-1.47,2.48-2.94,1.65-1.2,2.38-1.01,2.29-.83,1.92-.09,2.2.18,2.2.37,1.56.55,1.56.83,2.47,1.93,1.74,2.94.73,1.84.46,2.02.18,1.93-.55,4.05Z"/>
  <path class="cls-2" d="M240.62,211.41l-1.01-3.96-.64-1.84-1.56-3.31-.83-1.56-.83-1.47-.92-1.38-2.39-3.31-2.94-2.67-1.65-1.65-2.12-1.47-1.56-.92-3.22-1.56-1.56-.64-1.56-.55-3.5-.92-1.75-.37-1.84-.18h-6.07l-1.65.18-3.22.64-3.31.92-1.65.55-1.56.64-3.31,1.65-3.4,2.21-1.75,1.29-2.76,2.58-1.1,1.38-1.11,1.29-1.01,1.47-.92,1.47-1.56,3.03-.64,1.65-.55,1.75-.92,3.22-.27,1.56-.27,3.13v2.85l.37,2.67.46,3.31,1.01,3.68,1.47,3.5,1.65,3.13.92,1.47,1.01,1.38,1.11,1.29,2.49,2.58,1.38,1.29,1.38,1.2,1.75,1.2,1.29.83,2.58,1.38,1.65.74,1.56.64,1.75.55,3.4.92,1.84.37h-.01s1.75.17,1.75.17h3.77l3.77-.18,3.77-.37,1.84-.46,1.84-.55,1.75-.74,3.22-1.75,2.76-2.02,1.29-1.11,4.69-4.78,1.56-2.21,1.11-1.65,1.01-1.65.92-1.75.83-1.75.64-1.84,1.01-3.68.27-1.75.37-3.77v-1.93l-.27-4.05ZM227.8,208.64l-.83,1.93-2.29,3.31-1.46,1.29-1.65,1.01-3.3,1.38-1.56.27h0s-3.39-.01-3.39-.01l-1.83-.37-1.74-.74-1.65-.92-2.65-2.21-.83-1.29-1.46-3.4-.46-2.02-.09-3.96.37-1.75.64-1.65.92-1.47,2.48-2.94,1.65-1.2,2.38-1.01,2.29-.83,1.92-.09,2.2.18,2.2.37,1.56.55,1.56.83,2.47,1.93,1.74,2.94.73,1.84.46,2.02.18,1.93-.55,4.05Z"/>
</svg>