<?xml version="1.0" encoding="UTF-8"?>
<svg id="Layer_1" data-name="Layer 1" xmlns="http://www.w3.org/2000/svg" viewBox="0 0 293.58 228.33">
  <defs>
    <style>
      .cls-1 {
        fill: #2d2e73;
      }

      .cls-2 {
        fill: #2d2e73;
      }
    </style>
  </defs>
  <path class="cls-2" d="M81.32,228.14l-1.85-.37-3.43-.93-1.76-.56-1.57-.65-1.67-.74-2.59-1.39-1.3-.83-1.76-1.2-1.39-1.2-1.39-1.3-2.5-2.59-1.11-1.3-1.02-1.39-.93-1.48-1.67-3.15-1.48-3.52-1.02-3.7-.46-3.33-.37-2.69v-2.87l.28-3.15.28-1.57.93-3.24.56-1.76.65-1.67,1.57-3.06.93-1.48,1.02-1.48,1.11-1.3,1.11-1.39,2.78-2.59,1.76-1.3,3.43-2.22,3.33-1.67,1.57-.65,1.67-.56,3.33-.93,3.24-.65,1.67-.19h6.11l1.85.19,1.76.37,3.52.93,1.57.56,1.57.65,3.24,1.58,1.57.93,2.13,1.48,1.67,1.67,2.96,2.69,2.41,3.33.93,1.39.83,1.48.83,1.57,1.57,3.33.65,1.85,1.02,3.98.28,4.07v1.95l-.37,3.8-.28,1.76-1.02,3.7-.65,1.85-.83,1.76-.93,1.76-1.02,1.67-1.11,1.67-1.57,2.22-4.72,4.81-1.3,1.11-2.78,2.04-3.24,1.76-1.76.74-1.85.56-1.85.46-3.8.37-3.8.19h-3.8l-1.76-.19ZM87.24,207.68l1.58-.28,3.33-1.39,1.67-1.02,1.48-1.3,2.32-3.33.83-1.94.56-4.07-.19-1.94-.46-2.04-.74-1.85-1.76-2.96-2.5-1.94-1.57-.83-1.58-.56-2.22-.37-2.22-.19-1.95.09-2.31.83-2.41,1.02-1.67,1.2-2.5,2.96-.93,1.48-.65,1.67-.37,1.76.09,3.98.46,2.04,1.48,3.43.83,1.3,2.69,2.22,1.67.93,1.76.74,1.85.37h3.43Z"/>
  <path class="cls-2" d="M169.56,228.14l-1.85-.37-3.43-.93-1.76-.56-1.57-.65-1.67-.74-2.59-1.39-1.3-.83-1.76-1.2-1.39-1.2-1.39-1.3-2.5-2.59-1.11-1.3-1.02-1.39-.93-1.48-1.67-3.15-1.48-3.52-1.02-3.7-.46-3.33-.37-2.69v-2.87l.28-3.15.28-1.57.93-3.24.56-1.76.65-1.67,1.57-3.06.93-1.48,1.02-1.48,1.11-1.3,1.11-1.39,2.78-2.59,1.76-1.3,3.43-2.22,3.33-1.67,1.57-.65,1.67-.56,3.33-.93,3.24-.65,1.67-.19h6.11l1.85.19,1.76.37,3.52.93,1.57.56,1.57.65,3.24,1.58,1.57.93,2.13,1.48,1.67,1.67,2.96,2.69,2.41,3.33.93,1.39.83,1.48.83,1.57,1.57,3.33.65,1.85,1.02,3.98.28,4.07v1.95l-.37,3.8-.28,1.76-1.02,3.7-.65,1.85-.83,1.76-.93,1.76-1.02,1.67-1.11,1.67-1.57,2.22-4.72,4.81-1.3,1.11-2.78,2.04-3.24,1.76-1.76.74-1.85.56-1.85.46-3.8.37-3.8.19h-3.8l-1.76-.19ZM175.48,207.68l1.58-.28,3.33-1.39,1.67-1.02,1.48-1.3,2.32-3.33.83-1.94.56-4.07-.19-1.94-.46-2.04-.74-1.85-1.76-2.96-2.5-1.94-1.57-.83-1.58-.56-2.22-.37-2.22-.19-1.95.09-2.31.83-2.41,1.02-1.67,1.2-2.5,2.96-.93,1.48-.65,1.67-.37,1.76.09,3.98.46,2.04,1.48,3.43.83,1.3,2.69,2.22,1.67.93,1.76.74,1.85.37h3.43Z"/>
  <path class="cls-1" d="M182.03,151.4l15.67-37.47,18.11-42.4,2.15-5.38,2.42-5.11,3.5-9.69,1.88-4.58,3.5-9.15,1.88-5.11,1.88-4.85,1.89-5.11,2.15-4.84,1.88-4.85,21.26.27-3.23,7.8-1.62,5.38-2.15,5.38-2.15,5.65-2.15,5.11-2.69,7.54-2.15,4.85-2.15,4.57-1.88,4.85-3.5,9.69-3.77,9.15-1.88,4.84-4.31,9.69-4.31,10.77-1.88,5.38-2.15,5.38-2.15,5.11-4.31,9.96-1.88,4.57-1.89,4.85-1.88,4.57-1.62,4.85-22.48-1.68Z"/>
  <path class="cls-1" d="M243.38,3.12l5.05-2.29,4.45-.14,3.04-.13,1.45-.1,1.48.02,1.55.05h1.84s2.06-.1,2.06-.1l1.63-.11,4.98.02,1.73.04,2.23.09,2.28-.19,3.54-.08,2.96.04,3.01-.24,3.46.08,2.62.18.83,1.33-.16,1.04-2.07,3.65-1.42,2.35-2.14,4.33-1.4,2.66-1.41,2.86-1.54,1.88-2.51.29-1.56.14-1.59.03-1.48-.02-2.92-.12-1.48-.02-1.41.02-1.95.05-2.09-.02-4.77.08-3.43.03-1.77.04-1.81.12-11.02-.36-1.12-1.27-1.08-1.35-1.01-1.31-1.96-2.59,4.92-10.98Z"/>
  <path class="cls-1" d="M54.77,156.48l-2.88-3.68-4.32-8.16-1.44-2.88-1.28-2.72-4.16-8.33-1.44-2.72-1.28-2.88-1.44-2.72-10.73-20.97-12.81-25.29-2.88-5.6-2.72-5.6-3.04-5.6-1.44-2.72-1.44-2.88-1.12-4.32,3.04-1.12,4.16.32,5.76-.16h13.77l5.76.32,4.48,3.68,2.88,6.4,11.21,21.77,1.76,3.84,8.81,17.13,2.72,5.76,1.44,2.56,2.56,4.96,2.88,5.12,1.28,2.56,2.4,5.12,5.12,9.61,2.88,5.6,4.64,8.64.48,3.2-2.08,1.76-4.64.32-16.33.16-7.84.32-2.72-.8Z"/>
  <path class="cls-1" d="M53.18,152.37l1.17-3.74,3.65-4.71,2.7-2.86,37.13-.13,35.03.99,4.41.02,4.29.29,7.83-.22,3.76.06,7.45-.08,4.14-.09,3.95-.02,4.14-.09,4.02.17,3.95-.02,4.22.1,3.95-.02,7.52.11,6.23.18,4.14,4.13-2.65,7.63-2.5,2.92h-15.22s-6.42-.12-6.42-.12l-4.26.36-4.41-.02-4.6.05-4.22-.1-6.08.2-4.03-.17-3.83-.25-3.95.02-7.83.22-7.52-.12-3.95.02-8.05-.34-8.81-.04-4.33.17-4.41-.02-4.22-.1-8.24-.27-3.76-.06-3.95.02-3.76-.06-3.88.21-8.24-.27-4.6.05-5.16-.82-.81-3.18Z"/>
  <path class="cls-1" d="M117.07,154.08l-1.97-3.33-1.21-3.18-2.42-5.6-.91-2.73-1.06-2.57-1.06-2.73-1.06-2.57-2.42-5.6-1.21-2.88-1.21-3.03-1.06-3.03-2.42-6.06-2.42-5.45-1.06-2.72-2.12-5.15-1.97-5.45-1.06-2.73-1.21-2.57-1.21-2.73-1.51-4.24-1.21-2.88-1.21-3.18-1.21-3.03-.91-3.03-1.82-4.39-4.54-11.5-.91-3.63,1.21-1.21,2.73-.15,3.78-.15,3.48,1.51,1.82,4.24,2.12,5.15,1.06,2.73,1.21,2.88,1.06,2.73,1.21,2.72,1.06,2.88,1.06,2.73,1.06,2.88,1.97,5.15,1.06,2.57,1.97,5.45,1.36,2.88,1.21,3.03,10.19,23.85,9.98,25.6-1.25,2.63-2.27,3.78-2.27,1.82-2.42.3Z"/>
  <path class="cls-1" d="M167.67,154.08l-1.97-3.33-1.21-3.18-2.42-5.6-.91-2.73-1.06-2.57-1.06-2.73-1.06-2.57-2.42-5.6-1.21-2.88-1.21-3.03-1.06-3.03-2.42-6.06-2.42-5.45-1.06-2.72-2.12-5.15-1.97-5.45-1.06-2.73-1.21-2.57-1.21-2.73-1.51-4.24-1.21-2.88-1.21-3.18-1.21-3.03-.91-3.03-1.82-4.39-4.54-11.5-.91-3.63,1.21-1.21,2.73-.15,3.78-.15,3.48,1.51,1.82,4.24,2.12,5.15,1.06,2.73,1.21,2.88,1.06,2.73,1.21,2.72,1.06,2.88,1.06,2.73,1.06,2.88,1.97,5.15,1.06,2.57,1.97,5.45,1.36,2.88,1.21,3.03,10.19,23.85,9.98,25.6-1.25,2.63-2.27,3.78-2.27,1.82-2.42.3Z"/>
  <path class="cls-1" d="M209.63,133.94l-1.06-2.57-2.42-5.6-1.21-2.88-1.21-3.03-1.06-3.03-2.42-6.06-2.42-5.45-1.06-2.72-2.12-5.15-1.97-5.45-1.06-2.73-1.21-2.57-1.21-2.73-1.51-4.24-1.21-2.88-1.21-3.18-1.21-3.03-.91-3.03-1.82-4.39-4.54-11.5-.91-3.63,1.21-1.21,2.73-.15,3.78-.15,3.48,1.51,1.82,4.24,2.12,5.15,1.06,2.73,1.21,2.88,1.06,2.73,1.21,2.72,1.06,2.88,1.06,2.73,1.06,2.88,1.97,5.15,1.06,2.57,1.97,5.45,1.36,2.88,1.21,3.03,10.19,23.85-6.86,14Z"/>
  <path class="cls-1" d="M.16,45.51l3.57-3.27,7.97-4.14,5.61-2.51,59.33-.38,55.46.62h7.02s6.72.21,6.72.21l12.6-.25,5.98.02,11.92-.12,6.65-.11,6.32-.04,6.65-.11,6.35.12,6.32-.04,6.69.06,6.32-.04,11.95.05,9.86.12,4.13,3.13.47,4.19-2.2,4.89-8.31.61-26.68.11-10.2-.05-6.96.34h-7.02s-7.36.09-7.36.09l-6.69-.05-9.8.21-6.35-.12-6.01-.19-6.32.04-12.6.25-11.96-.05-6.31.04-12.69-.24-14.05.02-6.99.18h-7.02s-6.69-.04-6.69-.04l-13.03-.18-5.98-.02-6.32.04-5.98-.02-6.28.21-13.03-.18-7.36.08-7.86-.68.16-2.77Z"/>
  <path class="cls-1" d="M193.02,151.1l-2.27-1.82-2.27-3.78-1.25-2.63,9.98-25.6,10.19-23.85,1.21-3.03,1.36-2.88,1.97-5.45,1.06-2.57,1.97-5.15,1.06-2.88,1.06-2.73,1.06-2.88,1.21-2.72,1.06-2.73,1.21-2.88,1.06-2.73,2.12-5.15,1.82-4.24,3.48-1.51,3.78.15,2.73.15,1.21,1.21-.91,3.63-4.54,11.5-1.82,4.39-.91,3.03-1.21,3.03-1.21,3.18-1.21,2.88-1.51,4.24-1.21,2.73-1.21,2.57-1.06,2.73-1.97,5.45-2.12,5.15-1.06,2.72-2.42,5.45-2.42,6.06-1.06,3.03-1.21,3.03-1.21,2.88-2.42,5.6-1.06,2.57-1.06,2.73-1.06,2.57-.91,2.73-2.42,5.6-1.21,3.18-1.97,3.33-2.42-.3Z"/>
  <path class="cls-1" d="M143.38,149.89l-2.27-1.82-2.27-3.78-1.25-2.63,9.98-25.6,10.19-23.85,1.21-3.03,1.36-2.88,1.97-5.45,1.06-2.57,1.97-5.15,1.06-2.88,1.06-2.73,1.06-2.88,1.21-2.72,1.06-2.73,1.21-2.88,1.06-2.73,2.12-5.15,1.82-4.24,3.48-1.51,3.78.15,2.73.15,1.21,1.21-.91,3.63-4.54,11.5-1.82,4.39-.91,3.03-1.21,3.03-1.21,3.18-1.21,2.88-1.51,4.24-1.21,2.73-1.21,2.57-1.06,2.73-1.97,5.45-2.12,5.15-1.06,2.72-2.42,5.45-2.42,6.06-1.06,3.03-1.21,3.03-1.21,2.88-2.42,5.6-1.06,2.57-1.06,2.73-1.06,2.57-.91,2.73-2.42,5.6-1.21,3.18-1.97,3.33-2.42-.3Z"/>
  <path class="cls-1" d="M91.58,148.84l-2.27-1.82-2.27-3.78-1.25-2.63,9.98-25.6,10.19-23.85,1.21-3.03,1.36-2.88,1.97-5.45,1.06-2.57,1.97-5.15,1.06-2.88,1.06-2.73,1.06-2.88,1.21-2.72,1.06-2.73,1.21-2.88,1.06-2.73,2.12-5.15,1.82-4.24,3.48-1.51,3.78.15,2.73.15,1.21,1.21-.91,3.63-4.54,11.5-1.82,4.39-.91,3.03-1.21,3.03-1.21,3.18-1.21,2.88-1.51,4.24-1.21,2.73-1.21,2.57-1.06,2.73-1.97,5.45-2.12,5.15-1.06,2.72-2.42,5.45-2.42,6.06-1.06,3.03-1.21,3.03-1.21,2.88-2.42,5.6-1.06,2.57-1.06,2.73-1.06,2.57-.91,2.73-2.42,5.6-1.21,3.18-1.97,3.33-2.42-.3Z"/>
  <path class="cls-1" d="M47.92,118.25l8.63-20.21,1.21-3.03,1.36-2.88,1.97-5.45,1.06-2.57,1.97-5.15,1.06-2.88,1.06-2.73,1.06-2.88,1.21-2.72,1.06-2.73,1.21-2.88,1.06-2.73,2.12-5.15,1.82-4.24,3.48-1.51,3.78.15,2.73.15,1.21,1.21-.91,3.63-4.54,11.5-1.82,4.39-.91,3.03-1.21,3.03-1.21,3.18-1.21,2.88-1.51,4.24-1.21,2.73-1.21,2.57-1.06,2.73-1.97,5.45-2.12,5.15-1.06,2.72-2.42,5.45-2.42,6.06-1.06,3.03-1.21,3.03-1.21,2.88-2.42,5.6-6.37-15.06Z"/>
</svg>