<?xml version="1.0" encoding="UTF-8"?>
<svg id="Layer_1" data-name="Layer 1" xmlns="http://www.w3.org/2000/svg" viewBox="0 0 830.61 629.24">
  <defs>
    <style>
      .cls-1 {
        fill: #2d2e73;
        stroke: #000;
        stroke-miterlimit: 10;
      }
    </style>
  </defs>
  <path class="cls-1" d="M830.02,72.3l-29.07,14.94-72.35,3.73-54.03,1.11-48.83-.99-20.46.3-21.5.72-42.51-.35-22.06-.65-21.5.72-28.3,1.88-26.77-.34-22.06-.65-20.46.3-44.11-1.3-21.5.72-44.11-1.3-20.46.3-43,1.44-44.6.49-24.14.19-45.15-.88-40.44-1.19-29.89.92L12.07,58.57.6,12.2,29.81,3.59l67.14-1.63,45.15.88,66.65.16,45.15.88,67.14-1.63,45.15.88,22.06.65,23.1.23,22.06.65,44.05-1.86,22.05.65,23.1.23,22.06.65,44.05-1.86,23.1.23,22.54-1.14,22.06.65,44.6-.49,22.54-1.14,22.06.65,21.5-.72,37.02,13.73,18.49,30.78,7.4,27.29Z"/>
  <path class="cls-1" d="M830.02,339.82l-29.07,14.94-72.35,3.73-54.03,1.11-48.83-.99-20.46.3-21.5.72-42.51-.35-22.06-.65-21.5.72-28.3,1.88-26.77-.34-22.06-.65-20.46.3-44.11-1.3-21.5.72-44.11-1.3-20.46.3-43,1.44-44.6.49-24.14.19-45.15-.88-40.44-1.19-29.89.92-30.63-33.84L.6,279.72l29.21-8.61,67.14-1.63,45.15.88,66.65.16,45.15.88,67.14-1.63,45.15.88,22.06.65,23.1.23,22.06.65,44.05-1.86,22.05.65,23.1.23,22.06.65,44.05-1.86,23.1.23,22.54-1.14,22.06.65,44.6-.49,22.54-1.14,22.06.65,21.5-.72,37.02,13.73,18.49,30.78,7.4,27.29Z"/>
  <path class="cls-1" d="M830.02,607.33l-29.07,14.94-72.35,3.73-54.03,1.11-48.83-.99-20.46.3-21.5.72-42.51-.35-22.06-.65-21.5.72-28.3,1.88-26.77-.34-22.06-.65-20.46.3-44.11-1.3-21.5.72-44.11-1.3-20.46.3-43,1.44-44.6.49-24.14.19-45.15-.88-40.44-1.19-29.89.92-30.63-33.84-11.47-46.37,29.21-8.61,67.14-1.63,45.15.88,66.65.16,45.15.88,67.14-1.63,45.15.88,22.06.65,23.1.23,22.06.65,44.05-1.86,22.05.65,23.1.23,22.06.65,44.05-1.86,23.1.23,22.54-1.14,22.06.65,44.6-.49,22.54-1.14,22.06.65,21.5-.72,37.02,13.73,18.49,30.78,7.4,27.29Z"/>
</svg>