<?xml version="1.0" encoding="UTF-8"?>
<svg id="Layer_1" data-name="Layer 1" xmlns="http://www.w3.org/2000/svg" viewBox="0 0 1004.7 250.85">
  <defs>
    <style>
      .cls-1 {
        fill: #2d2e73;
      }
    </style>
  </defs>
  <path class="cls-1" d="M1.05,121.41l-1.05-5.24V35.81l.17-5.07.35-2.45-.35-2.97.35-6.46.17-3.67v-3.84l.17-5.76,3.5-2.62,13.1-.35,7.16-.7h9.08l6.64.35,6.81.52,7.16,1.22,6.64,1.4,3.14,1.05,3.14,1.22,3.14,1.4,2.8,1.75,5.24,4.19,2.27,2.45,1.75,2.8,1.57,2.97,1.22,3.14,1.4,6.29.35,3.32.17,7.16-.52,3.67-.87,3.67-3.14,6.64-1.75,3.14-2.27,2.97-2.27,2.62-2.8,2.45-5.76,4.02-2.97,1.4-8.91,2.8-1.92.87,2.27,2.8,2.27,2.45,4.37,4.89,16.42,17.29,5.06,5.42,5.42,5.24,2.27,4.54-4.02,1.75-3.32.17h-3.49l-4.72-1.22-3.67-3.49-7.16-7.51-2.27-2.62-2.45-2.45-4.72-5.42-7.51-8.04-2.62-2.62-3.84-4.02-1.92-1.75-.87,2.62-.17,6.29v23.58l-.52,5.24-2.1,1.22h-11.7l-3.49.35-5.42.35-7.69.18-4.02.17-3.32-1.4ZM47.87,66.38l6.99-1.05,3.67-1.05,3.49-1.57,3.14-1.92,3.67-2.62,2.45-3.5,1.75-3.14,1.4-3.49.87-3.49.52-5.76v-3.67l-1.4-4.89-1.57-3.32-4.72-5.76-2.97-2.09-3.32-1.92-6.64-1.92-2.97-.35h-3.14l-5.94.17-2.8,1.22-.17,4.72v13.63l-.35,3.84-.35,3.32.17,3.67v4.19l-.17,5.59v6.81l.87,4.37,4.54.17,2.97-.17Z"/>
  <path class="cls-1" d="M180.46,124.55l-3.49-.7-6.46-1.75-3.32-1.05-2.97-1.22-3.14-1.4-4.89-2.62-2.45-1.57-3.32-2.27-2.62-2.27-2.62-2.45-4.72-4.89-2.1-2.45-1.92-2.62-1.75-2.8-3.14-5.94-2.8-6.64-1.92-6.99-.87-6.29-.7-5.07v-5.41l.52-5.94.52-2.97,1.75-6.11,1.05-3.32,1.22-3.14,2.97-5.76,1.75-2.8,1.92-2.8,2.1-2.45,2.09-2.62,5.24-4.89,3.32-2.45,6.46-4.19,6.29-3.14,2.97-1.22,3.14-1.05,6.29-1.75,6.12-1.22,3.14-.35h11.53l3.49.35,3.32.7,6.64,1.75,2.97,1.05,2.97,1.22,6.11,2.97,2.97,1.75,4.02,2.8,3.14,3.14,5.59,5.07,4.54,6.29,1.75,2.62,1.57,2.8,1.57,2.97,2.97,6.29,1.22,3.49,1.92,7.51.52,7.68v3.67l-.7,7.16-.52,3.32-1.92,6.99-1.22,3.49-1.57,3.32-1.75,3.32-1.92,3.14-2.1,3.14-2.97,4.19-8.91,9.08-2.45,2.1-5.24,3.84-6.11,3.32-3.32,1.4-3.49,1.05-3.5.87-7.16.7-7.16.35h-7.16l-3.32-.35ZM191.64,85.95l2.97-.52,6.29-2.62,3.14-1.92,2.8-2.45,4.37-6.29,1.57-3.67,1.05-7.69-.35-3.67-.87-3.84-1.4-3.5-3.32-5.59-4.72-3.67-2.97-1.57-2.97-1.05-4.19-.7-4.19-.35-3.67.17-4.37,1.57-4.54,1.92-3.14,2.27-4.72,5.59-1.75,2.8-1.22,3.14-.7,3.32.17,7.51.87,3.84,2.8,6.46,1.57,2.45,5.07,4.19,3.14,1.75,3.32,1.4,3.49.7h6.46Z"/>
  <path class="cls-1" d="M346.94,124.55l-3.49-.7-6.46-1.75-3.32-1.05-2.97-1.22-3.14-1.4-4.89-2.62-2.45-1.57-3.32-2.27-2.62-2.27-2.62-2.45-4.72-4.89-2.1-2.45-1.92-2.62-1.75-2.8-3.14-5.94-2.8-6.64-1.92-6.99-.87-6.29-.7-5.07v-5.41l.52-5.94.52-2.97,1.75-6.11,1.05-3.32,1.22-3.14,2.97-5.76,1.75-2.8,1.92-2.8,2.1-2.45,2.09-2.62,5.24-4.89,3.32-2.45,6.46-4.19,6.29-3.14,2.97-1.22,3.14-1.05,6.29-1.75,6.12-1.22,3.14-.35h11.53l3.49.35,3.32.7,6.64,1.75,2.97,1.05,2.97,1.22,6.11,2.97,2.97,1.75,4.02,2.8,3.14,3.14,5.59,5.07,4.54,6.29,1.75,2.62,1.57,2.8,1.57,2.97,2.97,6.29,1.22,3.49,1.92,7.51.52,7.68v3.67l-.7,7.16-.52,3.32-1.92,6.99-1.22,3.49-1.57,3.32-1.75,3.32-1.92,3.14-2.1,3.14-2.97,4.19-8.91,9.08-2.45,2.1-5.24,3.84-6.11,3.32-3.32,1.4-3.49,1.05-3.5.87-7.16.7-7.16.35h-7.16l-3.32-.35ZM358.12,85.95l2.97-.52,6.29-2.62,3.14-1.92,2.8-2.45,4.37-6.29,1.57-3.67,1.05-7.69-.35-3.67-.87-3.84-1.4-3.5-3.32-5.59-4.72-3.67-2.97-1.57-2.97-1.05-4.19-.7-4.19-.35-3.67.17-4.37,1.57-4.54,1.92-3.14,2.27-4.72,5.59-1.75,2.8-1.22,3.14-.7,3.32.17,7.51.87,3.84,2.8,6.46,1.57,2.45,5.07,4.19,3.14,1.75,3.32,1.4,3.49.7h6.46Z"/>
  <path class="cls-1" d="M466.61,121.06l-1.22-5.24v-20.44l-.52-3.32.52-2.97v-3.5l.17-4.37-.17-4.54.17-5.42-.17-6.29v-18.52l.17-13.45.17-6.99-.17-6.99.17-5.59-.17-3.67.17-3.67,1.22-2.45h3.49l4.89-.35,3.67-.17,4.89.17,6.46-.35h3.14l4.72.17h2.62l1.92.17,1.22.87,1.05,4.72v21.49l.53,3.49-.35,1.4.17,2.8-.35,5.59v46.29l.35,6.46.35,5.76.17,4.19,3.32.87h3.32l6.64-.17h6.81l5.24-.17,2.97.35,1.57,4.72-.18,6.46-1.92,1.92-3.49-.17-6.29.17h-16.42l-4.72.87-3.84-.17-4.72-.35-4.02.35-3.14.17h-9.08l-8.04.35-3.32-.52Z"/>
  <path class="cls-1" d="M578.23,121.24l-1.22-3.14-.17-4.37-.35-10.13-.35-5.76v-6.81l.35-4.54v-7.16l-.35-3.14.52-2.62-.35-1.92.52-3.49v-6.11l.17-30.75v-5.94l.53-2.62v-4.02l.17-3.84-.17-4.02-.35-4.02.7-1.75,1.92-1.22,2.62.52,6.12-.52h11.7l4.54.52,6.46.17,3.84,2.1v4.37l.17,4.37-.17,4.54.17,4.54-.17,4.89-.17,5.24.35,5.42-.35,3.67.17,3.5-.17,4.89.17,5.76-.17,4.37.17,3.67-.35,5.59v17.12l.17,5.42.17,4.89v3.84l.17,2.1-.35,3.32.35,4.19-.35,2.45.52,1.75-.35,2.45-.52,2.27-3.84.7h-24.46l-5.24.17-2.8-.87Z"/>
  <path class="cls-1" d="M697.37,121.93l-3.32-1.57-.18-2.97v-6.12l-.17-6.64-.35-6.81v-11.18l-.17-11.35-.35-4.72-2.62-4.19-7.69-13.28-2.09-3.5-2.97-5.42-2.45-4.37-2.1-2.97-1.92-4.19-1.92-3.14-2.45-3.49-1.92-4.02-3.84-6.64-3.5-6.46-1.75-3.49.52-1.22,1.75-1.05,8.56.17h6.64l5.42-.17,10.66.7,4.54,1.05,2.45,4.02,2.97,5.42,8.73,15.37,3.67,6.29,1.92,3.32,3.84,6.11,3.67,5.94,2.1,3.14,1.22.17,2.27-3.32,5.24-8.73,3.49-5.59,6.81-11.53,5.42-8.73,1.92-2.97,1.75-3.15,3.14-5.06,5.24-1.92,3.49-.52,4.72,1.75-2.1,4.89-1.92,3.14-8.56,14.85-3.67,6.29-19.91,32.84-2.1,6.99v3.67l.7,4.37-.35,4.19.35,7.34v14.32l.17,5.42.53,3.49-.53,3.15-.87,1.4-4.02.52-5.94-.17-3.5.17-2.8-.17-2.44.52h-3.5l-4.54.17-5.42-.35Z"/>
  <path class="cls-1" d="M853.9,123.86h-6.46l-4.02-1.4-1.75-4.02-1.22-3.14-2.8-6.81-1.92-4.89-4.72-1.4h-4.02l-5.42.52-3.5-.17-4.54.17-8.21.18h-3.14l-3.67.7-1.05,3.49-1.22,2.8-2.27,5.76-1.05,2.97-2.09,3.49-3.5.35-2.8.53-2.97-.35-1.22-1.05.52-3.32,1.75-5.76,1.05-2.97,1.05-3.14,2.27-6.11,2.1-5.59,2.1-6.46,1.22-3.67,1.4-3.67,5.59-17.65,1.75-5.76,2.27-5.76,1.22-3.49,1.05-3.49,1.22-3.67,1.05-3.49,2.45-6.81,3.84-10.13,2.27-6.64,2.27-5.07,1.75-4.19,2.27-2.97,3.49,1.05,2.45,4.54,2.62,5.24,2.97,7.34,1.57,3.49,1.57,3.67,3.32,6.64,1.57,3.32,3.32,6.29,1.4,3.32,2.62,6.12,2.09,5.24,2.62,5.59,1.57,3.15,1.92,5.24,2.62,5.24,1.4,3.32,2.62,6.29,1.22,2.8,2.62,5.59,2.8,5.42.87,3.84,2.44,4.19,1.4,3.67,2.62,5.59v3.32l-1.22,1.75-3.15.35-4.54.17-2.8.7-4.89-.7-4.54.7-3.49-.35ZM805.33,92.41l5.07-.17,13.62-.17,3.5-.35,3.32-1.22-1.57-3.67-1.4-3.14-2.45-5.94-2.27-5.76-1.4-2.97-2.1-5.06-2.62-5.59-1.75-3.84-1.75,2.62-1.05,3.14-1.22,3.32-2.1,6.29-5.94,19.22-.52,3.32h2.62Z"/>
  <path class="cls-1" d="M931.46,121.93l-3.32-1.57-.18-2.97v-6.12l-.17-6.64-.35-6.81v-11.18l-.17-11.35-.35-4.72-2.62-4.19-7.69-13.28-2.09-3.5-2.97-5.42-2.45-4.37-2.1-2.97-1.92-4.19-1.92-3.14-2.45-3.49-1.92-4.02-3.84-6.64-3.5-6.46-1.75-3.49.52-1.22,1.75-1.05,8.56.17h6.64l5.42-.17,10.66.7,4.54,1.05,2.45,4.02,2.97,5.42,8.73,15.37,3.67,6.29,1.92,3.32,3.84,6.11,3.67,5.94,2.1,3.14,1.22.17,2.27-3.32,5.24-8.73,3.49-5.59,6.81-11.53,5.42-8.73,1.92-2.97,1.75-3.15,3.14-5.06,5.24-1.92,3.49-.52,4.72,1.75-2.1,4.89-1.92,3.14-8.56,14.85-3.67,6.29-19.91,32.84-2.1,6.99v3.67l.7,4.37-.35,4.19.35,7.34v14.32l.17,5.42.53,3.49-.53,3.15-.87,1.4-4.02.52-5.94-.17-3.5.17-2.8-.17-2.44.52h-3.5l-4.54.17-5.42-.35Z"/>
  <path class="cls-1" d="M60.13,249.97l-8.04-.52-3.67-.52-3.49-.7-3.5-1.05-6.81-2.62-3.14-1.57-3.14-1.75-2.97-1.92-5.42-4.02-2.45-2.1-2.1-2.45-3.84-5.24-1.92-2.97-3.49-5.59-1.4-2.8-1.05-2.97-2.1-7.16-1.4-6.81v-11.88l.35-3.84.52-3.67.87-3.84,2.27-6.81,1.22-3.14,3.15-5.94,1.75-2.97,2.97-4.02,3.5-4.02,2.62-2.62,5.24-4.19,2.45-1.75,5.59-3.32,3.32-1.57,3.15-1.4,3.49-1.22,6.81-2.09,7.86-1.22,8.21-1.05,5.07.52,1.05,1.22.17,4.19.17,6.81.17,5.41.17,2.45v2.97l.35,4.72v4.89l-.18,2.97-2.62,1.22-6.46.7-3.67.7-7.16,2.45-3.14,1.75-2.97,2.27-2.45,2.62-2.62,3.67-1.4,4.72-1.05,7.69.35,3.32,2.09,6.46,1.57,2.8,2.27,2.62,2.62,2.1,5.94,3.49,3.14,1.05,3.49.7,5.94.87,4.02.35,1.4,2.27.17,5.59.17,7.34-.17,6.64v10.31l-.52,1.92-3.67,1.92-7.69-.35Z"/>
  <path class="cls-1" d="M116.38,247.35l-1.05-5.24v-80.36l.17-5.07.35-2.45-.35-2.97.35-6.46.17-3.67v-3.84l.17-5.76,3.5-2.62,13.1-.35,7.16-.7h9.08l6.64.35,6.81.52,7.16,1.22,6.64,1.4,3.14,1.05,3.14,1.22,3.14,1.4,2.8,1.75,5.24,4.19,2.27,2.45,1.75,2.8,1.57,2.97,1.22,3.14,1.4,6.29.35,3.32.17,7.16-.52,3.67-.87,3.67-3.14,6.64-1.75,3.14-2.27,2.97-2.27,2.62-2.8,2.45-5.76,4.02-2.97,1.4-8.91,2.8-1.92.87,2.27,2.8,2.27,2.45,4.37,4.89,16.42,17.29,5.07,5.42,5.42,5.24,2.27,4.54-4.02,1.75-3.32.17h-3.49l-4.72-1.22-3.67-3.49-7.16-7.51-2.27-2.62-2.45-2.45-4.72-5.42-7.51-8.04-2.62-2.62-3.84-4.02-1.92-1.75-.87,2.62-.17,6.29v23.58l-.52,5.24-2.1,1.22h-11.7l-3.49.35-5.42.35-7.69.18-4.02.17-3.32-1.4ZM163.2,192.32l6.99-1.05,3.67-1.05,3.49-1.57,3.14-1.92,3.67-2.62,2.45-3.5,1.75-3.14,1.4-3.49.87-3.49.52-5.76v-3.67l-1.4-4.89-1.57-3.32-4.72-5.76-2.97-2.09-3.32-1.92-6.64-1.92-2.97-.35h-3.14l-5.94.17-2.8,1.22-.18,4.72v13.63l-.35,3.84-.35,3.32.17,3.67v4.19l-.17,5.59v6.81l.87,4.37,4.54.17,2.97-.17Z"/>
  <path class="cls-1" d="M262.95,249.27l-3.32-.52-4.02.52-3.67-.7h-3.84l-3.84-1.22-1.22-4.72-.17-3.67.17-5.94.52-4.72-.17-4.02-.17-2.97v-5.42l.17-2.97-.35-4.19.35-2.97-.35-4.02.35-5.24-.17-3.67.52-2.45v-45.77l-.17-6.64-.7-4.37,2.45-2.97,5.42-.35h27.6l5.07.17,4.02-.17h4.19l6.11-.17,9.43.17,3.14.52,1.75,1.57.7,3.84-1.22,4.72-2.97,1.4-2.62-.35-4.54.53-5.07-.17-4.72.17h-6.99l-1.4,1.22v4.19l-.18,12.93v6.11l-.7,5.42v17.99l4.19,1.4,3.84-.17h11.7l5.07.7,2.1,3.84.17,3.32-1.57,4.37-2.45.7-2.44-.17h-19.57l-.87.87-.17,4.37v22.19l.17,4.19,3.14.87,3.15.17h15.9l5.07,1.57.52,5.24.17,4.02-1.57,1.05-3.5-.35h-2.97l-4.72.52-3.5.17-2.79-.35-2.45.35-3.84-.17h-4.54l-2.27.17-3.49-.35-3.15.17-3.14.35-5.59-.17Z"/>
  <path class="cls-1" d="M412.66,249.8h-6.46l-4.02-1.4-1.75-4.02-1.22-3.14-2.8-6.81-1.92-4.89-4.72-1.4h-4.02l-5.42.52-3.5-.17-4.54.17-8.21.18h-3.14l-3.67.7-1.05,3.49-1.22,2.8-2.27,5.76-1.05,2.97-2.09,3.49-3.5.35-2.8.53-2.97-.35-1.22-1.05.52-3.32,1.75-5.76,1.05-2.97,1.05-3.14,2.27-6.11,2.1-5.59,2.1-6.46,1.22-3.67,1.4-3.67,5.59-17.65,1.75-5.76,2.27-5.76,1.22-3.49,1.05-3.49,1.22-3.67,1.05-3.49,2.45-6.81,3.84-10.13,2.27-6.64,2.27-5.07,1.75-4.19,2.27-2.97,3.49,1.05,2.45,4.54,2.62,5.24,2.97,7.34,1.57,3.49,1.57,3.67,3.32,6.64,1.57,3.32,3.32,6.29,1.4,3.32,2.62,6.12,2.09,5.24,2.62,5.59,1.57,3.15,1.92,5.24,2.62,5.24,1.4,3.32,2.62,6.29,1.22,2.8,2.62,5.59,2.8,5.42.87,3.84,2.44,4.19,1.4,3.67,2.62,5.59v3.32l-1.22,1.75-3.15.35-4.54.17-2.8.7-4.89-.7-4.54.7-3.49-.35ZM364.09,218.35l5.07-.17,13.62-.17,3.5-.35,3.32-1.22-1.57-3.67-1.4-3.14-2.45-5.94-2.27-5.76-1.4-2.97-2.1-5.06-2.62-5.59-1.75-3.84-1.75,2.62-1.05,3.14-1.22,3.32-2.1,6.29-5.94,19.22-.52,3.32h2.62Z"/>
  <path class="cls-1" d="M479.05,247.88l-4.02-.7-.87-2.8-.17-5.59v-14.5l-.52-4.72.35-2.8-.17-2.62.35-1.92v-5.24l-.52-4.89.52-3.84v-3.5l-.17-5.06v-3.5l.17-3.14-.35-2.97-.35-5.07.7-4.72-.17-5.24v-6.46l.17-4.37v-5.07l-.52-4.54-1.05-2.8-2.8-.17-4.19-.17-3.67.35h-3.84l-5.42-.35-2.27-5.59.7-4.89.87-1.05,3.67-.17,6.11-.17h19.04l5.06-.52,5.07.52h2.97l4.37-.7h36.68l1.05.7.7,3.67v2.8l-1.22,3.67-3.84.87h-5.94l-4.72.52-3.32-.17-2.62.35-1.4,2.62-.17,4.89.17,5.94v3.84l-.7,7.69v6.99l.17,10.13v7.16l.52,6.11-.7,5.24.17,5.42.17,3.14-.35,3.49.35,3.14.35,3.84-.52,4.02-.17,3.32v9.61l-.17,5.59-1.92,3.84-4.89.52h-9.43l-4.54.17-12.75-.17Z"/>
  <path class="cls-1" d="M571.81,247.18l-1.22-3.14-.17-4.37-.35-10.13-.35-5.76v-6.81l.35-4.54v-7.16l-.35-3.14.52-2.62-.35-1.92.52-3.49v-6.11l.17-30.75v-5.94l.53-2.62v-4.02l.17-3.84-.17-4.02-.35-4.02.7-1.75,1.92-1.22,2.62.52,6.12-.52h11.7l4.54.52,6.46.17,3.84,2.1v4.37l.17,4.37-.17,4.54.17,4.54-.17,4.89-.17,5.24.35,5.42-.35,3.67.17,3.5-.17,4.89.17,5.76-.17,4.37.17,3.67-.35,5.59v17.12l.17,5.42.17,4.89v3.84l.17,2.1-.35,3.32.35,4.19-.35,2.45.52,1.75-.35,2.45-.52,2.27-3.84.7h-24.46l-5.24.17-2.8-.87Z"/>
  <path class="cls-1" d="M703,250.5l-3.5-.7-6.46-1.75-3.32-1.05-2.97-1.22-3.14-1.4-4.89-2.62-2.45-1.57-3.32-2.27-2.62-2.27-2.62-2.45-4.72-4.89-2.1-2.45-1.92-2.62-1.75-2.8-3.14-5.94-2.8-6.64-1.92-6.99-.87-6.29-.7-5.07v-5.41l.52-5.94.52-2.97,1.75-6.11,1.05-3.32,1.22-3.14,2.97-5.76,1.75-2.8,1.92-2.8,2.1-2.45,2.09-2.62,5.24-4.89,3.32-2.45,6.46-4.19,6.29-3.14,2.97-1.22,3.14-1.05,6.29-1.75,6.11-1.22,3.14-.35h11.53l3.49.35,3.32.7,6.64,1.75,2.97,1.05,2.97,1.22,6.11,2.97,2.97,1.75,4.02,2.8,3.14,3.14,5.59,5.07,4.54,6.29,1.75,2.62,1.57,2.8,1.57,2.97,2.97,6.29,1.22,3.49,1.92,7.51.52,7.68v3.67l-.7,7.16-.52,3.32-1.92,6.99-1.22,3.49-1.57,3.32-1.75,3.32-1.92,3.14-2.1,3.14-2.97,4.19-8.91,9.08-2.45,2.1-5.24,3.84-6.11,3.32-3.32,1.4-3.49,1.05-3.5.87-7.16.7-7.16.35h-7.16l-3.32-.35ZM714.18,211.89l2.97-.52,6.29-2.62,3.14-1.92,2.8-2.45,4.37-6.29,1.57-3.67,1.05-7.69-.35-3.67-.87-3.84-1.4-3.5-3.32-5.59-4.72-3.67-2.97-1.57-2.97-1.05-4.19-.7-4.19-.35-3.67.17-4.37,1.57-4.54,1.92-3.14,2.27-4.72,5.59-1.75,2.8-1.22,3.14-.7,3.32.17,7.51.87,3.84,2.8,6.46,1.57,2.45,5.07,4.19,3.14,1.75,3.32,1.4,3.49.7h6.46Z"/>
  <path class="cls-1" d="M815.15,247.18l-1.05-4.54v-10.65l.35-6.46-.52-4.19.17-4.19.17-2.97-.17-5.94-.17-2.97v-24.11l.17-27.25.17-5.59-.35-4.37.17-4.02v-4.89l-.17-5.59.87-4.19,1.4-1.4,2.97.17,4.02,2.62,4.02,3.14,4.89,4.02,5.42,4.72,5.59,4.54,5.24,4.19,2.27,1.92,10.13,8.21,3.14,2.45,5.42,4.37,2.62,1.92,2.45,1.75,5.59,4.19,2.97-1.05-.17-3.32-.35-4.89-.17-4.72-.18-20.44.53-5.94,5.24-1.75h3.49l4.54,1.05,1.22,5.07v7.86l.35,6.29v5.59l.35,5.42v11.18l.35,5.59v5.76l-.35,6.46v3.67l.17,6.64.17,5.42v5.42l-.17,3.84.35,1.75-.17,4.54.35,8.21v15.02l-5.06,2.62h-4.02l-4.89-.7-.7-4.72v-7.69l-.87-4.72-13.63-10.31-2.62-2.1-5.07-3.84-2.45-2.1-4.89-4.02-2.45-2.27-5.42-4.54-5.59-4.19-7.69-6.11-3.14-2.27-1.05,1.4v4.37l.17,5.24v5.59l-.17,5.42v15.9l.52,2.97v14.68l-.52,4.19-3.67.7h-6.11l-4.02-1.05Z"/>
  <path class="cls-1" d="M948.79,249.97l-3.14-.17h-2.97l-6.29-.35-3.67-1.05-.87-1.92v-5.07l-.17-14.32.17-6.29,3.14-2.1h3.84l4.19-.17,5.24-.35,3.14-.7,4.02-3.67.17-5.59-.52-3.14-1.92-6.46-5.06-16.77-1.92-6.64-.87-3.32-1.05-3.67-.17-3.49-.17-3.15.17-3.14,1.4-6.29,1.05-3.14,1.4-2.8,3.32-4.89,4.89-4.72,6.81-4.54,7.16-2.62,10.83-2.8,3.15-.17,4.02-.17,4.89-.35,3.14-.17h2.97l3.84.87,1.4,4.02.35,3.32v3.32l-.7,7.16.17,3.84.35,5.76-1.57,3.49-3.84.52-4.19.52-5.24.35-2.8,1.05-3.67,2.8-1.4,2.97.35,5.07.87,3.32,1.05,3.49,1.22,3.32,2.45,6.46,1.57,4.89,1.75,4.89,1.75,6.64.87,4.19,1.05,4.37.35,3.84-.17,3.84-1.4,7.86-2.97,7.34-2.27,3.14-2.45,2.8-2.8,2.45-6.46,3.84-3.49,1.22-3.84.87-7.51.17-6.99.7-5.94-.52Z"/>
</svg>