<?xml version="1.0" encoding="UTF-8"?>
<svg id="Layer_1" xmlns="http://www.w3.org/2000/svg" version="1.1" viewBox="0 0 292.3 226.76">
  <!-- Generator: Adobe Illustrator 29.8.4, SVG Export Plug-In . SVG Version: 2.1.1 Build 6)  -->
  <defs>
    <style>
      .st0 {
        fill: none;
        stroke: #231f20;
        stroke-miterlimit: 10;
        stroke-width: 2px;
      }

      .st1 {
        display: none;
        fill: #fff;
      }
    </style>
  </defs>
  <path d="M168.89,23.35c-1.34-1.25-3.45-1.17-4.7.17l-.11.12c-18.87,20.18-36.51,39.2-52.61,56.67l6.62.35,1.73.13c15.36-16.36,31.88-34.06,49.25-52.73.8-.87,1.17-3.46-.18-4.71ZM165.89,29.03c-.88.97-1.95,2.06-3.07,3.26-3.22,3.47-12.49,14.09-14.01,12.68-1.5-1.39,8.4-11.43,11.62-14.9,1.11-1.2,2.12-2.35,3.02-3.28,1.71-1.77,3.04-2.77,4-1.88.99.92.08,2.31-1.56,4.12ZM14.34,189.78c.85.79,25.15-24,63.41-64.35v-8.28C37.63,161.26,13.5,189.01,14.34,189.78Z"/>
  <path class="st0" d="M167.52,193.88l-5.42-5.24-5.06-5.42-16.42-17.29-4.37-4.89-2.27-2.45-2.27-2.8,1.92-.87,8.91-2.8,2.97-1.4,5.76-4.02,2.8-2.45,2.27-2.62,2.27-2.97,1.75-3.14,3.14-6.64.87-3.67.52-3.67-.17-7.16-.35-3.32-1.4-6.29-1.22-3.14-1.57-2.97-1.75-2.8-2.27-2.45-5.24-4.19-2.8-1.75-3.14-1.4-3.14-1.22-3.14-1.05-6.64-1.4-7.16-1.22-5.08-.39-1.73-.13-6.62-.35h-9.1l-7.16.7-13.1.35-3.5,2.62-.17,5.76v3.84l-.17,3.67-.35,6.46.35,2.97-.35,2.45-.17,5.07v80.36l1.03,5.24,3.32,1.4,4.02-.17,7.69-.18,5.42-.35,3.49-.35h11.7l2.1-1.22.52-5.24v-23.58l.17-6.29.87-2.62,1.92,1.75,3.84,4.02,2.62,2.62,7.51,8.04,4.72,5.42,2.45,2.45,2.27,2.62,7.16,7.51,3.67,3.49,4.72,1.22h3.49l3.32-.17,4.02-1.75-2.27-4.54ZM125.62,144.77v.02s-2.98.17-2.98.17l-4.54-.17-.87-4.37v-6.81l.17-5.59v-4.19l-.17-3.67.35-3.32.35-3.84v-13.63l.17-4.72,2.8-1.22,5.94-.17h3.14l2.97.35,6.64,1.92,3.32,1.92,2.97,2.09,4.72,5.76,1.57,3.32,1.4,4.89v3.67l-.52,5.76-.87,3.49-1.4,3.49-1.75,3.14-2.45,3.5-3.67,2.62-3.14,1.92-3.49,1.57-3.67,1.05-6.99,1.05Z"/>
  <path d="M213.62,203.84c-14.95,0-29.29-4.64-39.11-13.12-10.98-9.48-16.09-23.17-14.77-39.62,1.46-18.23,14.74-38.98,35.52-55.52,4.87-3.88,9.78-7.2,14.46-9.85-5.56-3.09-11.29-8.42-17.89-17.73l-.37-.52c-16.55-23.35-28.51-40.22-62.19-41.31-44.84-1.44-59.43,27.29-67.79,55.6-4.55,15.42-12.85,22.05-19.46,25.39-6.04,3.05-18.06,2.8-22.46,1.31,0,0,14.32,2.01,21.46-1.64,6.42-3.28,15.05-10.26,19.5-25.34,8.46-28.68,23.25-57.79,68.78-56.32,34.17,1.11,46.88,19.03,62.98,41.73l.37.52c6.71,9.46,12.5,14.74,18.14,17.71,8.72-4.78,16.53-6.72,21.85-6.39,9.24.58,12.32,3.51,12.07,6.4-.26,3.01-5.67,5.23-12.33,5.05-7.92-.21-14.66-.4-21.58-3.9-4.84,2.68-9.92,6.09-14.91,10.06-20.58,16.37-33.72,36.86-35.15,54.82-1.29,16.11,3.7,29.52,14.43,38.78,13.1,11.31,34.43,15.66,54.34,11.08,10.47-2.41,19.01-5.05,24.4-6.92,14.81-5.13,21.45,3.79,21.45,3.79-5.5-4.71-11.15-6.77-22.3-2.83-5.4,1.9-12.79,4.51-23.32,6.93-5.33,1.23-10.75,1.82-16.1,1.82ZM211.9,85.71c6.56,3.13,12.98,3.3,20.5,3.5,6.52.18,11.12-2,11.3-4.14.15-1.75-1.44-4.85-11.22-5.33-4.92-.24-12.32,1.53-20.58,5.96Z"/>
  <path d="M105.77,86.53c-3.67,3.9-13.84,14.97-18.73,20.42-1.48,1.65,2.86,5.65,4.26,4.16,5.08-5.42,14.57-15.53,19.1-20.28,1.71-1.79-3.12-5.9-4.64-4.29Z"/>
  <path class="st1" d="M88.7,109.35c-1.02-1.02-1.66-2.4-1.66-2.4l4.26,4.16s-1.55-.71-2.6-1.76Z"/>
  <path class="st1" d="M110.41,90.82l-4.64-4.29s1.71.71,2.86,1.77,1.78,2.53,1.78,2.53Z"/>
</svg>