<?xml version="1.0" encoding="UTF-8"?>
<svg id="Layer_1" data-name="Layer 1" xmlns="http://www.w3.org/2000/svg" viewBox="0 0 1111.89 382.08">
  <defs>
    <style>
      .cls-1 {
        fill: #231f20;
      }

      .cls-2 {
        fill: #2d2e73;
      }
    </style>
  </defs>
  <path class="cls-2" d="M111.09,181.32l-1.05-5.24v-80.36l.17-5.07.35-2.45-.35-2.97.35-6.46.17-3.67v-3.84l.17-5.76,3.5-2.62,13.1-.35,7.16-.7h9.08l6.64.35,6.81.52,7.16,1.22,6.64,1.4,3.14,1.05,3.14,1.22,3.14,1.4,2.8,1.75,5.24,4.19,2.27,2.45,1.75,2.8,1.57,2.97,1.22,3.14,1.4,6.29.35,3.32.17,7.16-.52,3.67-.87,3.67-3.14,6.64-1.75,3.14-2.27,2.97-2.27,2.62-2.8,2.45-5.76,4.02-2.97,1.4-8.91,2.8-1.92.87,2.27,2.8,2.27,2.45,4.37,4.89,16.42,17.29,5.06,5.42,5.42,5.24,2.27,4.54-4.02,1.75-3.32.17h-3.49l-4.72-1.22-3.67-3.49-7.16-7.51-2.27-2.62-2.45-2.45-4.72-5.42-7.51-8.04-2.62-2.62-3.84-4.02-1.92-1.75-.87,2.62-.17,6.29v23.58l-.52,5.24-2.1,1.22h-11.7l-3.49.35-5.42.35-7.69.18-4.02.17-3.32-1.4h.02ZM157.91,126.29l6.99-1.05,3.67-1.05,3.49-1.57,3.14-1.92,3.67-2.62,2.45-3.5,1.75-3.14,1.4-3.49.87-3.49.52-5.76v-3.67l-1.4-4.89-1.57-3.32-4.72-5.76-2.97-2.09-3.32-1.92-6.64-1.92-2.97-.35h-3.14l-5.94.17-2.8,1.22-.17,4.72v13.63l-.35,3.84-.35,3.32.17,3.67v4.19l-.17,5.59v6.81l.87,4.37,4.54.17,2.97-.17v-.02h.01Z"/>
  <path class="cls-2" d="M576.65,180.97l-1.22-5.24v-20.44l-.52-3.32.52-2.97v-3.5l.17-4.37-.17-4.54.17-5.42-.17-6.29v-18.52l.17-13.45.17-6.99-.17-6.99.17-5.59-.17-3.67.17-3.67,1.22-2.45h3.49l4.89-.35,3.67-.17,4.89.17,6.46-.35h3.14l4.72.17h2.62l1.92.17,1.22.87,1.05,4.72v21.49l.53,3.49-.35,1.4.17,2.8-.35,5.59v46.29l.35,6.46.35,5.76.17,4.19,3.32.87h3.32l6.64-.17h6.81l5.24-.17,2.97.35,1.57,4.72-.18,6.46-1.92,1.92-3.49-.17-6.29.17h-16.42l-4.72.87-3.84-.17-4.72-.35-4.02.35-3.14.17h-9.08l-8.04.35-3.32-.52.03.04h0Z"/>
  <path class="cls-2" d="M688.27,181.15l-1.22-3.14-.17-4.37-.35-10.13-.35-5.76v-6.81l.35-4.54v-7.16l-.35-3.14.52-2.62-.35-1.92.52-3.49v-6.11l.17-30.75v-5.94l.53-2.62v-4.02l.17-3.84-.17-4.02-.35-4.02.7-1.75,1.92-1.22,2.62.52,6.12-.52h11.7l4.54.52,6.46.17,3.84,2.1v4.37l.17,4.37-.17,4.54.17,4.54-.17,4.89-.17,5.24.35,5.42-.35,3.67.17,3.5-.17,4.89.17,5.76-.17,4.37.17,3.67-.35,5.59v17.12l.17,5.42.17,4.89v3.84l.17,2.1-.35,3.32.35,4.19-.35,2.45.52,1.75-.35,2.45-.52,2.27-3.84.7h-24.46l-5.24.17-2.8-.87.03-.04h0Z"/>
  <path class="cls-2" d="M807.41,181.84l-3.32-1.57-.18-2.97v-6.12l-.17-6.64-.35-6.81v-11.18l-.17-11.35-.35-4.72-2.62-4.19-7.69-13.28-2.09-3.5-2.97-5.42-2.45-4.37-2.1-2.97-1.92-4.19-1.92-3.14-2.45-3.49-1.92-4.02-3.84-6.64-3.5-6.46-1.75-3.49.52-1.22,1.75-1.05,8.56.17h6.64l5.42-.17,10.66.7,4.54,1.05,2.45,4.02,2.97,5.42,8.73,15.37,3.67,6.29,1.92,3.32,3.84,6.11,3.67,5.94,2.1,3.14,1.22.17,2.27-3.32,5.24-8.73,3.49-5.59,6.81-11.53,5.42-8.73,1.92-2.97,1.75-3.15,3.14-5.06,5.24-1.92,3.49-.52,4.72,1.75-2.1,4.89-1.92,3.14-8.56,14.85-3.67,6.29-19.91,32.84-2.1,6.99v3.67l.7,4.37-.35,4.19.35,7.34v14.32l.17,5.42.53,3.49-.53,3.15-.87,1.4-4.02.52-5.94-.17-3.5.17-2.8-.17-2.44.52h-3.5l-4.54.17-5.42-.35h.03,0Z"/>
  <path class="cls-2" d="M963.94,183.77h-6.46l-4.02-1.4-1.75-4.02-1.22-3.14-2.8-6.81-1.92-4.89-4.72-1.4h-4.02l-5.42.52-3.5-.17-4.54.17-8.21.18h-3.14l-3.67.7-1.05,3.49-1.22,2.8-2.27,5.76-1.05,2.97-2.09,3.49-3.5.35-2.8.53-2.97-.35-1.22-1.05.52-3.32,1.75-5.76,1.05-2.97,1.05-3.14,2.27-6.11,2.1-5.59,2.1-6.46,1.22-3.67,1.4-3.67,5.59-17.65,1.75-5.76,2.27-5.76,1.22-3.49,1.05-3.49,1.22-3.67,1.05-3.49,2.45-6.81,3.84-10.13,2.27-6.64,2.27-5.07,1.75-4.19,2.27-2.97,3.49,1.05,2.45,4.54,2.62,5.24,2.97,7.34,1.57,3.49,1.57,3.67,3.32,6.64,1.57,3.32,3.32,6.29,1.4,3.32,2.62,6.12,2.09,5.24,2.62,5.59,1.57,3.15,1.92,5.24,2.62,5.24,1.4,3.32,2.62,6.29,1.22,2.8,2.62,5.59,2.8,5.42.87,3.84,2.44,4.19,1.4,3.67,2.62,5.59v3.32l-1.22,1.75-3.15.35-4.54.17-2.8.7-4.89-.7-4.54.7-3.49-.35.02-.05h0ZM915.37,152.32l5.07-.17,13.62-.17,3.5-.35,3.32-1.22-1.57-3.67-1.4-3.14-2.45-5.94-2.27-5.76-1.4-2.97-2.1-5.06-2.62-5.59-1.75-3.84-1.75,2.62-1.05,3.14-1.22,3.32-2.1,6.29-5.94,19.22-.52,3.32h2.62v-.03h.01Z"/>
  <path class="cls-2" d="M1041.5,181.84l-3.32-1.57-.18-2.97v-6.12l-.17-6.64-.35-6.81v-11.18l-.17-11.35-.35-4.72-2.62-4.19-7.69-13.28-2.09-3.5-2.97-5.42-2.45-4.37-2.1-2.97-1.92-4.19-1.92-3.14-2.45-3.49-1.92-4.02-3.84-6.64-3.5-6.46-1.75-3.49.52-1.22,1.75-1.05,8.56.17h6.64l5.42-.17,10.66.7,4.54,1.05,2.45,4.02,2.97,5.42,8.73,15.37,3.67,6.29,1.92,3.32,3.84,6.11,3.67,5.94,2.1,3.14,1.22.17,2.27-3.32,5.24-8.73,3.49-5.59,6.81-11.53,5.42-8.73,1.92-2.97,1.75-3.15,3.14-5.06,5.24-1.92,3.49-.52,4.72,1.75-2.1,4.89-1.92,3.14-8.56,14.85-3.67,6.29-19.91,32.84-2.1,6.99v3.67l.7,4.37-.35,4.19.35,7.34v14.32l.17,5.42.53,3.49-.53,3.15-.87,1.4-4.02.52-5.94-.17-3.5.17-2.8-.17-2.44.52h-3.5l-4.54.17-5.42-.35h.03,0Z"/>
  <path class="cls-2" d="M233.37,347.26l-1.03-5.24v-80.36l.17-5.07.35-2.45-.35-2.97.35-6.46.17-3.67v-3.84l.17-5.76,3.46-2.62,12.96-.35,7.08-.7h8.98l6.57.35,6.74.52,7.08,1.22,6.57,1.4,3.11,1.05,3.11,1.22,3.11,1.4,2.76,1.75,5.19,4.19,2.25,2.45,1.73,2.8,1.55,2.97,1.21,3.14,1.38,6.29.35,3.32.17,7.16-.52,3.67-.86,3.67-3.11,6.64-1.73,3.14-2.25,2.97-2.25,2.62-2.76,2.45-5.7,4.02-2.94,1.4-8.81,2.8-1.9.87,2.25,2.8,2.25,2.45,4.32,4.89,16.24,17.29,5.01,5.42,5.36,5.24,2.25,4.54-3.97,1.75-3.29.17h-3.46l-4.66-1.22-3.63-3.49-7.08-7.51-2.25-2.62-2.41-2.45-4.67-5.42-7.43-8.04-2.59-2.62-3.81-4.02-1.9-1.75-.86,2.62-.17,6.29v23.58l-.52,5.24-2.08,1.22h-11.57l-3.46.35-5.36.35-7.6.18-3.97.17-3.29-1.4h.02-.03ZM279.68,292.23l6.92-1.05,3.63-1.05,3.46-1.57,3.11-1.92,3.63-2.62,2.41-3.5,1.73-3.14,1.38-3.49.86-3.49.52-5.76v-3.67l-1.38-4.89-1.56-3.32-4.67-5.76-2.94-2.09-3.28-1.92-6.57-1.92-2.94-.35h-3.11l-5.87.17-2.76,1.22-.18,4.72v13.63l-.35,3.84-.35,3.32.17,3.67v4.19l-.17,5.59v6.81l.86,4.37,4.49.17,2.94-.17.02-.02h0Z"/>
  <path class="cls-2" d="M374.34,349.18l-3.28-.52-3.97.52-3.63-.7h-3.81l-3.81-1.22-1.21-4.72-.17-3.67.17-5.94.52-4.72-.17-4.02-.17-2.97v-5.42l.17-2.97-.35-4.19.35-2.97-.35-4.02.35-5.24-.17-3.67.52-2.45v-45.77l-.17-6.64-.7-4.37,2.41-2.97,5.36-.35h27.3l5.01.17,3.97-.17h4.14l6.05-.17,9.33.17,3.11.52,1.73,1.57.7,3.84-1.21,4.72-2.94,1.4-2.59-.35-4.49.53-5.01-.17-4.66.17h-6.92l-1.38,1.22v4.19l-.18,12.93v6.11l-.7,5.42v17.99l4.14,1.4,3.81-.17h11.57l5.01.7,2.08,3.84.17,3.32-1.56,4.37-2.41.7-2.41-.17h-19.35l-.86.87-.17,4.37v22.19l.17,4.19,3.11.87,3.11.17h15.72l5.01,1.57.52,5.24.17,4.02-1.55,1.05-3.46-.35h-2.94l-4.66.52-3.46.17-2.76-.35-2.41.35-3.81-.17h-4.49l-2.25.17-3.46-.35-3.11.17-3.11.35-5.52-.17.02.03h0Z"/>
  <path class="cls-2" d="M524.42,349.71h-6.39l-3.97-1.4-1.73-4.02-1.21-3.14-2.76-6.81-1.9-4.89-4.67-1.4h-3.97l-5.36.52-3.46-.17-4.49.17-8.12.18h-3.11l-3.63.7-1.03,3.49-1.21,2.8-2.25,5.76-1.03,2.97-2.08,3.49-3.46.35-2.76.53-2.94-.35-1.21-1.05.52-3.32,1.73-5.76,1.03-2.97,1.03-3.14,2.25-6.11,2.08-5.59,2.08-6.46,1.21-3.67,1.38-3.67,5.52-17.65,1.73-5.76,2.25-5.76,1.21-3.49,1.03-3.49,1.21-3.67,1.03-3.49,2.41-6.81,3.81-10.13,2.25-6.64,2.25-5.07,1.73-4.19,2.25-2.97,3.46,1.05,2.41,4.54,2.59,5.24,2.94,7.34,1.56,3.49,1.55,3.67,3.28,6.64,1.56,3.32,3.28,6.29,1.38,3.32,2.59,6.12,2.08,5.24,2.59,5.59,1.56,3.15,1.9,5.24,2.59,5.24,1.38,3.32,2.59,6.29,1.21,2.8,2.59,5.59,2.76,5.42.86,3.84,2.41,4.19,1.38,3.67,2.59,5.59v3.32l-1.21,1.75-3.11.35-4.49.17-2.76.7-4.84-.7-4.49.7-3.46-.35v-.05h.02ZM476.39,318.26l5.01-.17,13.47-.17,3.46-.35,3.28-1.22-1.56-3.67-1.38-3.14-2.41-5.94-2.25-5.76-1.38-2.97-2.08-5.06-2.59-5.59-1.73-3.84-1.73,2.62-1.03,3.14-1.21,3.32-2.08,6.29-5.87,19.22-.52,3.32h2.59v-.03h0Z"/>
  <path class="cls-2" d="M590.08,347.79l-3.97-.7-.86-2.8-.17-5.59v-14.5l-.52-4.72.35-2.8-.17-2.62.35-1.92v-5.24l-.52-4.89.52-3.84v-3.5l-.17-5.06v-3.5l.17-3.14-.35-2.97-.35-5.07.7-4.72-.17-5.24v-6.46l.17-4.37v-5.07l-.52-4.54-1.03-2.8-2.76-.17-4.14-.17-3.63.35h-3.81l-5.36-.35-2.25-5.59.7-4.89.86-1.05,3.63-.17,6.05-.17h18.84l5.01-.52,5.01.52h2.94l4.32-.7h36.28l1.03.7.7,3.67v2.8l-1.21,3.67-3.81.87h-5.87l-4.67.52-3.28-.17-2.59.35-1.38,2.62-.17,4.89.17,5.94v3.84l-.7,7.69v6.99l.17,10.13v7.16l.52,6.11-.7,5.24.17,5.42.17,3.14-.35,3.49.35,3.14.35,3.84-.52,4.02-.17,3.32v9.61l-.17,5.59-1.9,3.84-4.84.52h-9.33l-4.49.17-12.62-.17-.02.02h.01Z"/>
  <path class="cls-2" d="M681.83,347.09l-1.21-3.14-.17-4.37-.35-10.13-.35-5.76v-6.81l.35-4.54v-7.16l-.35-3.14.52-2.62-.35-1.92.52-3.49v-6.11l.17-30.75v-5.94l.52-2.62v-4.02l.17-3.84-.17-4.02-.35-4.02.7-1.75,1.9-1.22,2.59.52,6.05-.52h11.58l4.49.52,6.4.17,3.81,2.1v4.37l.17,4.37-.17,4.54.17,4.54-.17,4.89-.17,5.24.35,5.42-.35,3.67.17,3.5-.17,4.89.17,5.76-.17,4.37.17,3.67-.35,5.59v17.12l.17,5.42.17,4.89v3.84l.17,2.1-.35,3.32.35,4.19-.35,2.45.52,1.75-.35,2.45-.52,2.27-3.81.7h-24.18l-5.19.17-2.76-.87.02-.04h-.01Z"/>
  <path class="cls-2" d="M362.45,112.66l-1.92-7.51-1.22-3.49-2.97-6.29-1.57-2.97-1.57-2.8-1.75-2.62-4.54-6.29-5.59-5.07-3.14-3.14-4.02-2.8-2.97-1.75-6.11-2.97-2.97-1.22-2.97-1.05-6.64-1.75-3.32-.7-3.49-.35h-11.53l-3.14.35-6.12,1.22-6.29,1.75-3.14,1.05-2.97,1.22-6.29,3.14-6.46,4.19-3.32,2.45-5.24,4.89-2.09,2.62-2.1,2.45-1.92,2.8-1.75,2.8-2.97,5.76-1.22,3.14-1.05,3.32-1.75,6.11-.52,2.97-.52,5.94v5.41l.7,5.07.87,6.29,1.92,6.99,2.8,6.64,3.14,5.94,1.75,2.8,1.92,2.62,2.1,2.45,4.72,4.89,2.62,2.45,2.62,2.27,3.32,2.27,2.45,1.57,4.89,2.62,3.14,1.4,2.97,1.22,3.32,1.05,6.46,1.75,3.49.7-.02-.02,3.32.35h7.16l7.16-.35,7.16-.7,3.5-.87,3.49-1.05,3.32-1.4,6.11-3.32,5.24-3.84,2.45-2.1,8.91-9.08,2.97-4.19,2.1-3.14,1.92-3.14,1.75-3.32,1.57-3.32,1.22-3.49,1.92-6.99.52-3.32.7-7.16v-3.67l-.52-7.68ZM338.12,107.41l-1.57,3.67-4.35,6.29-2.78,2.45-3.13,1.92-6.26,2.62-2.96.52v-.02h-6.44l-3.48-.7-3.3-1.4-3.13-1.75-5.04-4.19-1.57-2.45-2.78-6.46-.87-3.84-.17-7.51.7-3.32,1.22-3.14,1.74-2.8,4.7-5.59,3.13-2.27,4.52-1.92,4.35-1.57,3.65-.17,4.17.35,4.17.7,2.96,1.05,2.96,1.57,4.69,3.67,3.3,5.59,1.39,3.5.87,3.84.35,3.67-1.04,7.69Z"/>
  <path class="cls-2" d="M922.51,347.09l-1.03-4.54v-10.65l.35-6.46-.52-4.19.17-4.19.17-2.97-.17-5.94-.17-2.97v-24.11l.17-27.25.17-5.59-.35-4.37.17-4.02v-4.89l-.17-5.59.86-4.19,1.38-1.4,2.94.17,3.97,2.62,3.97,3.14,4.84,4.02,5.36,4.72,5.52,4.54,5.19,4.19,2.25,1.92,10.03,8.21,3.11,2.45,5.36,4.37,2.59,1.92,2.41,1.75,5.52,4.19,2.94-1.05-.17-3.32-.35-4.89-.17-4.72-.18-20.44.52-5.94,5.19-1.75h3.46l4.49,1.05,1.21,5.07v7.86l.35,6.29v5.59l.35,5.42v11.18l.35,5.59v5.76l-.35,6.46v3.67l.17,6.64.17,5.42v5.42l-.17,3.84.35,1.75-.17,4.54.35,8.21v15.02l-5.01,2.62h-3.97l-4.84-.7-.7-4.72v-7.69l-.86-4.72-13.47-10.31-2.59-2.1-5.01-3.84-2.41-2.1-4.84-4.02-2.41-2.27-5.36-4.54-5.52-4.19-7.6-6.11-3.11-2.27-1.03,1.4v4.37l.17,5.24v5.59l-.17,5.42v15.9l.52,2.97v14.68l-.52,4.19-3.63.7h-6.05l-3.97-1.05h-.05Z"/>
  <path class="cls-2" d="M1054.7,349.88l-3.11-.17h-2.94l-6.22-.35-3.63-1.05-.86-1.92v-5.07l-.17-14.32.17-6.29,3.11-2.1h3.81l4.14-.17,5.19-.35,3.11-.7,3.97-3.67.17-5.59-.52-3.14-1.9-6.46-5.01-16.77-1.9-6.64-.86-3.32-1.03-3.67-.17-3.49-.17-3.15.17-3.14,1.38-6.29,1.03-3.14,1.38-2.8,3.28-4.89,4.84-4.72,6.74-4.54,7.08-2.62,10.71-2.8,3.11-.17,3.97-.17,4.84-.35,3.11-.17h2.94l3.81.87,1.38,4.02.35,3.32v3.32l-.7,7.16.17,3.84.35,5.76-1.56,3.49-3.81.52-4.14.52-5.19.35-2.76,1.05-3.63,2.8-1.38,2.97.35,5.07.86,3.32,1.03,3.49,1.21,3.32,2.41,6.46,1.55,4.89,1.73,4.89,1.73,6.64.86,4.19,1.03,4.37.35,3.84-.17,3.84-1.38,7.86-2.94,7.34-2.25,3.14-2.41,2.8-2.76,2.45-6.39,3.84-3.46,1.22-3.81.87-7.43.17-6.92.7-5.87-.52h.03Z"/>
  <path d="M135.4,71.23l4.44,4.45C179.96,31.58,206.74.78,205.9.01c-.85-.79-32.24,30.87-70.5,71.22ZM58.21,156.41c-.29.33-.52.65-.69.98.48-.52,1.09-1.18,1.77-1.94-.5.3-.84.69-1.08.96Z"/>
  <path class="cls-1" d="M120.89,96.29c-13.71,14.88-37.33,40.45-55.69,60.17-.9.96-1.78,1.91-2.65,2.84-.38.4-.75.81-1.12,1.2-.47-.58-.85-1.13-.94-1.5.13-.15.28-.3.44-.47.78-.83,1.73-1.83,2.73-2.91,4-4.29,8.85-9.8,7.77-10.8-1.29-1.19-8.11,6.22-12.14,10.63-.5.3-.84.69-1.08.96-.29.33-.52.65-.69.98-.03.04-.07.07-.1.11-1.12,1.2-2.19,2.29-3.07,3.26-1.64,1.81-2.55,3.2-1.56,4.12.96.89,2.29-.11,4-1.88.34-.35.7-.73,1.07-1.14.25.49.55.99.89,1.51-.88.95-1.75,1.88-2.59,2.78l-.11.12c-1.25,1.34-3.36,1.42-4.7.17h0c-1.35-1.26-.98-3.85-.18-4.72,17.37-18.67,33.89-36.37,49.25-52.73l16.06-17.19,4.41,4.49h0Z"/>
  <path class="cls-2" d="M200.21,175.49l-5.42-5.24-5.06-5.42-16.42-17.29-4.37-4.89-2.27-2.45-2.27-2.8,1.92-.87,8.91-2.8,2.97-1.4,5.76-4.02,2.8-2.45,2.27-2.62,2.27-2.97,1.75-3.14,3.14-6.64.87-3.67.52-3.67-.17-7.16-.35-3.32-1.4-6.29-1.22-3.14-1.57-2.97-1.75-2.8-2.27-2.45-5.24-4.19-2.8-1.75-3.14-1.4-3.14-1.22-3.14-1.05-6.64-1.4-7.16-1.22-5.08-.39-1.73-.13-6.62-.35h-9.1l-7.16.7-13.1.35-3.5,2.62-.17,5.76v3.84l-.17,3.67-.35,6.46.35,2.97-.35,2.45-.17,5.07v80.36l1.03,5.24,3.32,1.4,4.02-.17,7.69-.18,5.42-.35,3.49-.35h11.7l2.1-1.22.52-5.24v-23.58l.17-6.29.87-2.62,1.92,1.75,3.84,4.02,2.62,2.62,7.51,8.04,4.72,5.42,2.45,2.45,2.27,2.62,7.16,7.51,3.67,3.49,4.72,1.22h3.49l3.32-.17,4.02-1.75-2.27-4.54h0ZM158.31,126.38v.02l-2.98.17-4.54-.17-.87-4.37v-6.81l.17-5.59v-4.19l-.17-3.67.35-3.32.35-3.84v-13.63l.17-4.72,2.8-1.22,5.94-.17h3.14l2.97.35,6.64,1.92,3.32,1.92,2.97,2.09,4.72,5.76,1.57,3.32,1.4,4.89v3.67l-.52,5.76-.87,3.49-1.4,3.49-1.75,3.14-2.45,3.5-3.67,2.62-3.14,1.92-3.49,1.57-3.67,1.05-6.99,1.05h0Z"/>
  <path d="M138.46,68.14c-3.67,3.9-13.84,14.97-18.73,20.42-1.48,1.65,2.86,5.65,4.26,4.16,5.08-5.42,14.57-15.53,19.1-20.28,1.71-1.79-3.12-5.9-4.64-4.29h0Z"/>
  <path class="cls-2" d="M66.15,233.65c-16.19,49.19-38.12,74.77-65.17,76.04,6.2-.53,39.02-6.71,61.38-77.29,13.77-43.5,2.77-59.84-2.76-67.78-.3-.43-.59-.85-.85-1.25-.34-.52-.64-1.02-.89-1.51-.82-1.59-1.11-3.04-.34-4.47.17-.33.4-.65.69-.98.24-.27.58-.66,1.08-.96.87-.53,2.22-.81,4.37.17-1,1.08-1.95,2.08-2.73,2.91-.19-.02-.32,0-.39.11-.07.09-.08.21-.05.36.09.37.47.92.94,1.5.49.63,1.06,1.3,1.44,1.84,5.9,8.46,18.17,26.07,3.28,71.31Z"/>
  <path class="cls-2" d="M0,309.74c.23-.01.46-.02.69-.03-.36.03-.59.03-.69.03Z"/>
  <path class="cls-2" d="M118.82,382.08c-19.06-5.16-36.05-19.97-46.62-40.65-14.31-27.99-14.98-61.76-2.48-95.31,14.47-38.83,8.27-70.73-2.97-83.05-1.55-1.71-3.05-3.01-4.2-3.77.87-.93,1.75-1.88,2.65-2.84h.01c5.3,3.2,12.39,12.21,15.78,27.59,2.78,12.59,3.1,33.59-7.53,63.48-12.15,34.17-11.93,64.59.86,92.05,14.36,30.81,42.74,41.83,44.5,42.49h0Z"/>
  <path class="cls-2" d="M529.12,113.24l-1.92-7.51-1.22-3.49-2.97-6.29-1.57-2.97-1.57-2.8-1.75-2.62-4.54-6.29-5.59-5.07-3.14-3.14-4.02-2.8-2.97-1.75-6.11-2.97-2.97-1.22-2.97-1.05-6.64-1.75-3.32-.7-3.49-.35h-11.53l-3.14.35-6.12,1.22-6.29,1.75-3.14,1.05-2.97,1.22-6.29,3.14-6.46,4.19-3.32,2.45-5.24,4.89-2.09,2.62-2.1,2.45-1.92,2.8-1.75,2.8-2.97,5.76-1.22,3.14-1.05,3.32-1.75,6.11-.52,2.97-.52,5.94v5.41l.7,5.07.87,6.29,1.92,6.99,2.8,6.64,3.14,5.94,1.75,2.8,1.92,2.62,2.1,2.45,4.72,4.89,2.62,2.45,2.62,2.27,3.32,2.27,2.45,1.57,4.89,2.62,3.14,1.4,2.97,1.22,3.32,1.05,6.46,1.75,3.49.7-.02-.02,3.32.35h7.16l7.16-.35,7.16-.7,3.5-.87,3.49-1.05,3.32-1.4,6.11-3.32,5.24-3.84,2.45-2.1,8.91-9.08,2.97-4.19,2.1-3.14,1.92-3.14,1.75-3.32,1.57-3.32,1.22-3.49,1.92-6.99.52-3.32.7-7.16v-3.67l-.52-7.68ZM504.79,107.99l-1.57,3.67-4.35,6.29-2.78,2.45-3.13,1.92-6.26,2.62-2.96.52v-.02h-6.44l-3.48-.7-3.3-1.4-3.13-1.75-5.04-4.19-1.57-2.45-2.78-6.46-.87-3.84-.17-7.51.7-3.32,1.22-3.14,1.74-2.8,4.7-5.59,3.13-2.27,4.52-1.92,4.35-1.57,3.65-.17,4.17.35,4.17.7,2.96,1.05,2.96,1.57,4.69,3.67,3.3,5.59,1.39,3.5.87,3.84.35,3.67-1.04,7.69Z"/>
  <path class="cls-2" d="M884.5,278.5l-1.91-7.51-1.21-3.49-2.95-6.29-1.56-2.97-1.56-2.8-1.74-2.62-4.51-6.29-5.55-5.07-3.12-3.14-3.99-2.8-2.95-1.75-6.07-2.97-2.95-1.22-2.95-1.05-6.6-1.75-3.3-.7-3.47-.35h-11.46l-3.12.35-6.08,1.22-6.25,1.75-3.12,1.05-2.95,1.22-6.25,3.14-6.42,4.19-3.3,2.45-5.21,4.89-2.08,2.62-2.09,2.45-1.91,2.8-1.74,2.8-2.95,5.76-1.21,3.14-1.04,3.32-1.74,6.11-.52,2.97-.52,5.94v5.41l.7,5.07.86,6.29,1.91,6.99,2.78,6.64,3.12,5.94,1.74,2.8,1.91,2.62,2.09,2.45,4.69,4.89,2.6,2.45,2.6,2.27,3.3,2.27,2.43,1.57,4.86,2.62,3.12,1.4,2.95,1.22,3.3,1.05,6.42,1.75,3.47.7v-.02s3.29.35,3.29.35h7.11l7.11-.35,7.11-.7,3.48-.87,3.47-1.05,3.3-1.4,6.07-3.32,5.21-3.84,2.43-2.1,8.85-9.08,2.95-4.19,2.09-3.14,1.91-3.14,1.74-3.32,1.56-3.32,1.21-3.49,1.91-6.99.52-3.32.7-7.16v-3.67l-.52-7.68ZM860.32,273.25l-1.56,3.67-4.32,6.29-2.77,2.45-3.11,1.92-6.22,2.62-2.94.52v-.02h-6.39l-3.46-.7-3.28-1.4-3.11-1.75-5.01-4.19-1.56-2.45-2.76-6.46-.86-3.84-.17-7.51.69-3.32,1.21-3.14,1.73-2.8,4.67-5.59,3.11-2.27,4.49-1.92,4.33-1.57,3.62-.17,4.14.35,4.15.7,2.94,1.05,2.94,1.57,4.66,3.67,3.28,5.59,1.38,3.5.86,3.84.35,3.67-1.03,7.69Z"/>
  <path class="cls-2" d="M183.81,349.74l-8.94-.52-4.08-.52-3.89-.7-3.89-1.06-7.57-2.64-3.5-1.58-3.5-1.76-3.31-1.93-6.02-4.04-2.71-2.11-2.33-2.46-4.28-5.27-2.13-2.99-3.89-5.62-1.55-2.82-1.16-2.99-2.33-7.2-1.55-6.85v-11.95l.39-3.86.58-3.69.97-3.86,2.52-6.85,1.36-3.16,3.5-5.98,1.94-2.99,3.31-4.04,3.89-4.04,2.92-2.64,5.83-4.21,2.71-1.76,6.21-3.34,3.69-1.58,3.5-1.41,3.89-1.23,7.57-2.1,8.75-1.23,9.13-1.06,5.63.52,1.16,1.23.19,4.21.19,6.85.19,5.44.19,2.46v2.99l.39,4.75v4.92l-.2,2.99-2.92,1.23-7.19.7-4.08.7-7.97,2.46-3.5,1.76-3.31,2.28-2.71,2.64-2.92,3.69-1.55,4.75-1.16,7.74.39,3.34,2.33,6.5,1.75,2.82,2.52,2.64,2.92,2.11,6.6,3.51,3.5,1.06,3.89.7,6.6.88,4.47.35,1.55,2.28.19,5.62.19,7.38-.19,6.68v10.37l-.58,1.93-4.08,1.93-8.55-.35.02-.02h.02Z"/>
</svg>